<svg version="1.1" viewBox="0 0 366 80" xmlns="http://www.w3.org/2000/svg">
 <path d="m232.63 53.55v0.13a2.21 2.21 0 1 0 4.42 0v-0.13a2.21 2.21 0 0 0-4.42 0m9.3-30.73v32h4.43v-13.59a5 5 0 0 1 1.25-3.65 4.2 4.2 0 0 1 3.15-1.27 4.1 4.1 0 0 1 3.12 1.27 5 5 0 0 1 1.24 3.65v13.57h4.42v-15.13a7.87 7.87 0 0 0-2.35-5.92 7.45 7.45 0 0 0-5-2 7 7 0 0 0-5.74 2.7h-0.08v-11.63zm27.48 14.53a4.78 4.78 0 0 1 6.55 0 5.87 5.87 0 0 1 1.38 4h-9.34a6.23 6.23 0 0 1 1.39-4m0.09-5a7.91 7.91 0 0 0-2.95 1.93 9.77 9.77 0 0 0-2.13 3.6 16.36 16.36 0 0 0-0.83 5.61 14.42 14.42 0 0 0 1 5.71 9.11 9.11 0 0 0 2.27 3.55 7.88 7.88 0 0 0 1.55 1 8.25 8.25 0 0 0 1.62 0.77 11.13 11.13 0 0 0 3.4 0.52 10.26 10.26 0 0 0 7.94-3.68l-3.21-2.83a6.54 6.54 0 0 1-4.83 2.22 5 5 0 0 1-3.74-1.45 5.42 5.42 0 0 1-1.57-4.15h13.75v-3.77a9.49 9.49 0 0 0-2.7-7.06 9 9 0 0 0-6.39-2.57 9.25 9.25 0 0 0-3.18 0.59m17.72 1.17a6.22 6.22 0 0 0-2.41 5.26 6 6 0 0 0 1.83 4.54 7.41 7.41 0 0 0 4.54 1.93l3.91 0.35a3.71 3.71 0 0 1 2 0.55 1.9 1.9 0 0 1 0.72 1.71 2.41 2.41 0 0 1-1.23 2.15 5.78 5.78 0 0 1-3.13 0.77 9.1 9.1 0 0 1-7-2.92l-3.08 3.15a13.79 13.79 0 0 0 9.71 4.07 11.1 11.1 0 0 0 6.53-1.89 6 6 0 0 0 2.61-5.11 7.43 7.43 0 0 0-1.42-4.68c-1-1.26-2.69-2-5-2.15l-3.66-0.29a3.67 3.67 0 0 1-2.25-0.81 1.56 1.56 0 0 1-0.66-1.34 2.54 2.54 0 0 1 0.87-2 4.32 4.32 0 0 1 2.92-0.76 8.71 8.71 0 0 1 3.23 0.55 13.93 13.93 0 0 1 2.77 1.58l2.74-3.31a12.89 12.89 0 0 0-3.65-2.3 13.12 13.12 0 0 0-2.28-0.61 17.33 17.33 0 0 0-2.74-0.2 9.31 9.31 0 0 0-5.82 1.76m20.16 0a6.22 6.22 0 0 0-2.41 5.26 6 6 0 0 0 1.83 4.54 7.41 7.41 0 0 0 4.54 1.93l3.91 0.35a3.68 3.68 0 0 1 2 0.55 1.88 1.88 0 0 1 0.73 1.71 2.42 2.42 0 0 1-1.24 2.15 5.78 5.78 0 0 1-3.13 0.77 9.1 9.1 0 0 1-7-2.92l-3.08 3.15a13.79 13.79 0 0 0 9.72 4.07 11.09 11.09 0 0 0 6.52-1.89 6 6 0 0 0 2.61-5.11 7.43 7.43 0 0 0-1.41-4.69c-1-1.26-2.68-2-5-2.15l-3.66-0.29a3.68 3.68 0 0 1-2.26-0.81 1.56 1.56 0 0 1-0.66-1.34 2.54 2.54 0 0 1 0.87-2 4.34 4.34 0 0 1 2.92-0.76 8.8 8.8 0 0 1 3.24 0.55 13.86 13.86 0 0 1 2.7 1.57l2.74-3.31a12.89 12.89 0 0 0-3.65-2.3 13.12 13.12 0 0 0-2.24-0.54 17.33 17.33 0 0 0-2.74-0.2 9.31 9.31 0 0 0-5.82 1.76m23.5 3.79a4.78 4.78 0 0 1 6.55 0 5.92 5.92 0 0 1 1.39 4h-9.33a6.23 6.23 0 0 1 1.39-4m0.09-5a7.91 7.91 0 0 0-2.95 1.93 9.76 9.76 0 0 0-2.12 3.6 16.12 16.12 0 0 0-0.83 5.61 14.44 14.44 0 0 0 0.95 5.71 9.11 9.11 0 0 0 2.27 3.55 7.66 7.66 0 0 0 1.56 1 7.92 7.92 0 0 0 1.61 0.77 11.11 11.11 0 0 0 3.39 0.52 10.27 10.27 0 0 0 7.95-3.68l-3.21-2.83a6.54 6.54 0 0 1-4.83 2.22 5 5 0 0 1-3.74-1.45 5.42 5.42 0 0 1-1.53-4.17h13.75v-3.75a9.53 9.53 0 0 0-2.69-7.06 9.06 9.06 0 0 0-6.4-2.57 9.29 9.29 0 0 0-3.18 0.59m20.81 2.11h-0.08v-2.45h-4.43v22.79h4.43v-13.56a5 5 0 0 1 1.24-3.65 4.18 4.18 0 0 1 3.15-1.27 4.12 4.12 0 0 1 3.12 1.27 5 5 0 0 1 1.23 3.65v13.57h4.43v-15.13a7.84 7.84 0 0 0-2.36-5.92 7.41 7.41 0 0 0-5-2 7 7 0 0 0-5.73 2.7" fill="#0091d1"/>
 <path d="m99.11 52.43a7.39 7.39 0 0 1-5.71 2.63 7.15 7.15 0 0 1-3.4-0.85 7.45 7.45 0 0 1-2.5-2.11 5.88 5.88 0 0 1-1.21-2.92 32.4 32.4 0 0 1-0.36-5.79 32.52 32.52 0 0 1 0.36-5.84 5.74 5.74 0 0 1 1.21-2.83 6.75 6.75 0 0 1 5.9-3 6.93 6.93 0 0 1 3.14 0.72 12.86 12.86 0 0 1 2.57 2v-11.62h4.42v32h-4.42zm-4.36-16.12a4.3 4.3 0 0 0-2.4 0.55 3.52 3.52 0 0 0-1.35 1.63 8.84 8.84 0 0 0-0.53 2.24c-0.08 0.87-0.13 1.76-0.13 2.67s0.05 1.71 0.13 2.53a9 9 0 0 0 0.53 2.33 3.85 3.85 0 0 0 1.34 1.63 4 4 0 0 0 2.4 0.61 4.18 4.18 0 0 0 2.49-0.66 3.15 3.15 0 0 0 1.25-1.67 8.5 8.5 0 0 0 0.58-2.31v-5a8.47 8.47 0 0 0-0.58-2.24 3.15 3.15 0 0 0-1.24-1.62 4.25 4.25 0 0 0-2.49-0.64m15.49-13.53a2.21 2.21 0 0 1 2.21 2.17v0.13a2.22 2.22 0 0 1-4.43 0v-0.13a2.22 2.22 0 0 1 2.22-2.21m-2.24 9.21h4.43v22.8h-4.43zm21.71 20.42a7.36 7.36 0 0 1-5.71 2.64 6.84 6.84 0 0 1-3.57-0.94 7.8 7.8 0 0 1-2.27-1.84 7 7 0 0 1-1.25-2.75 29.55 29.55 0 0 1-0.41-6.1 30.64 30.64 0 0 1 0.41-6.21 6.74 6.74 0 0 1 1.25-2.7 7.22 7.22 0 0 1 2.27-1.92 7.47 7.47 0 0 1 3.57-0.85 7.38 7.38 0 0 1 5.69 2.7v-2.45h4.42v22.25q-0.09 5.13-2.86 7.55a9.79 9.79 0 0 1-6.71 2.48 10 10 0 0 1-7.63-3.81l3.44-2.83a7.91 7.91 0 0 0 1.97 1.36 5 5 0 0 0 2.33 0.68 5.16 5.16 0 0 0 3.66-1.29 5 5 0 0 0 1.4-3.66zm-8.76-9a25.68 25.68 0 0 0 0.17 3.61 3.47 3.47 0 0 0 0.7 1.72 4.14 4.14 0 0 0 1.36 1.12 4.16 4.16 0 0 0 4.34 0 4.12 4.12 0 0 0 1.31-1.12 3.81 3.81 0 0 0 0.75-1.72 34.67 34.67 0 0 0 0.13-3.61 36.8 36.8 0 0 0-0.13-3.7 3.48 3.48 0 0 0-0.75-1.67 5.19 5.19 0 0 0-1.31-1.21 4.56 4.56 0 0 0-4.34 0 5.17 5.17 0 0 0-1.36 1.21 3.18 3.18 0 0 0-0.7 1.67 27.25 27.25 0 0 0-0.17 3.7m20.67-20.59a2.21 2.21 0 0 1 2.22 2.17v0.13a2.22 2.22 0 0 1-4.43 0v-0.13a2.21 2.21 0 0 1 2.21-2.21m-2.21 9.21h4.43v22.8h-4.43zm9.59-6.89h4.43v6.89h3.23v3.5h-3.23v13.32c0 1.15 0.5 1.71 1.57 1.68h1.66v4.3h-2.31a5.17 5.17 0 0 1-3.82-1.49 5.35 5.35 0 0 1-1.53-4.12v-13.65h-2.22v-3.54h2.22zm22.41 27.67h-0.09a3.63 3.63 0 0 1-1.9 1.71 8.86 8.86 0 0 1-3.53 0.57 7.92 7.92 0 0 1-5.69-2 6.41 6.41 0 0 1-2.1-4.94 6.53 6.53 0 0 1 1.83-4.75 7.12 7.12 0 0 1 5.34-2h6.14v-2.37q0-3-4.52-2.93a8 8 0 0 0-2.62 0.35 3.25 3.25 0 0 0-1.57 1.41l-3.48-2.74c1.68-2.27 4.17-3.38 7.45-3.32a11.51 11.51 0 0 1 6.64 1.62q2.49 1.71 2.53 5.88v15.53h-4.43zm0-7.63h-5.32q-3.87 0.09-3.83 2.74a2.48 2.48 0 0 0 1 2 4.57 4.57 0 0 0 3.17 0.9 7.62 7.62 0 0 0 3.94-0.68c0.69-0.49 1-1.58 1-3.3zm9.53-22.33h4.43v26.18c0 1 0.55 1.55 1.66 1.55h1.53v4.3h-2a6.14 6.14 0 0 1-4-1.25c-1.11-0.84-1.66-2.26-1.66-4.25zm13.56 22.33a5.42 5.42 0 0 0 1.5 4.17 5 5 0 0 0 3.74 1.45 6.54 6.54 0 0 0 4.83-2.22l3.21 2.83a10.26 10.26 0 0 1-7.94 3.68 11.17 11.17 0 0 1-3.4-0.52 8.53 8.53 0 0 1-1.62-0.77 8.19 8.19 0 0 1-1.55-1 9.11 9.11 0 0 1-2.27-3.58 14.44 14.44 0 0 1-0.95-5.71 16.38 16.38 0 0 1 0.82-5.61 9.9 9.9 0 0 1 2.13-3.6 8 8 0 0 1 3-1.93 9.35 9.35 0 0 1 3.19-0.59 9 9 0 0 1 6.39 2.57 9.45 9.45 0 0 1 2.69 7.06v3.77zm9.33-3.77a5.92 5.92 0 0 0-1.39-4 4.78 4.78 0 0 0-6.55 0 6.23 6.23 0 0 0-1.39 4zm9.1 6.47a9.1 9.1 0 0 0 7 2.92 5.78 5.78 0 0 0 3.07-0.77 2.42 2.42 0 0 0 1.22-2.15 1.88 1.88 0 0 0-0.73-1.71 3.66 3.66 0 0 0-2-0.55l-3.91-0.35a7.35 7.35 0 0 1-4.53-1.93 5.93 5.93 0 0 1-1.84-4.54 6.22 6.22 0 0 1 2.41-5.26 9.31 9.31 0 0 1 5.82-1.76 17.33 17.33 0 0 1 2.74 0.2 13.12 13.12 0 0 1 2.28 0.61 12.89 12.89 0 0 1 3.65 2.3l-2.74 3.31a13.57 13.57 0 0 0-2.7-1.57 8.8 8.8 0 0 0-3.24-0.55 4.28 4.28 0 0 0-2.92 0.77 2.51 2.51 0 0 0-0.87 2 1.55 1.55 0 0 0 0.66 1.34 3.7 3.7 0 0 0 2.26 0.81l3.66 0.29c2.3 0.18 4 0.89 5 2.15a7.43 7.43 0 0 1 1.42 4.68 6 6 0 0 1-2.61 5.12 11.15 11.15 0 0 1-6.52 1.88 13.8 13.8 0 0 1-9.67-4.09z" fill="#194b8d"/>
 <path d="m15.48 56.61 2.26-2.34 3.05-0.6-3.7 12.93zm2.87 15.39 5.23-18.32 7.13 2.47 2.62 17.65-4.87 2.27zm-13.84-17 6.74-6.79 4 4.75-2 2-7.02 2.67zm21.27-3.43 22.22-13.86 4.63-0.21v4.69l-13.36 11.26-7.15 0.32zm-12.63-5.26-3.84-3.43v-1.8h3.36v-5.22l8 15.1-3.07 0.6zm-0.15-15.61 4.3-4.05 2.77 17.46zm6.78-5.56 19.22-1.63-15.55 24.68zm22.62-2 12-2.94-7.88 15.24-19.52 12.24zm6.07-11.66 2.33-0.63 4 6.47-10.71 2.61zm-21.47 4.68-3.19-3.4 5.59-4.27 9.6 12.32-17.53 1.49zm4.9-8.79 11.41-3.16 2.74 6.05-4.74 9.2zm-2.9-2-9.22 7 3.53 3.77-5.73 6.43-0.79 0.8-6.79 6.48v8.54h-3.38v5.78l2.7 2.17-8.26 8.33 4.1 6.22 7.84-2.89 2.53 15.76 13 5.25 7.74-3.63-2.81-19 6.84-0.31 15-12.66v-8.73l-5.48 0.25 8.67-16.84-6.49-10.4-3.73 1-3.47-7.69z" fill="#0091d1"/>
 <g>
  <path d="m285.5 70.517v-7.8005h3.1202v15.601h-3.1202z" display="none"/>
 </g>
</svg>
