<svg version="1.1" viewBox="0 0 322 80" xmlns="http://www.w3.org/2000/svg">
 <path d="M1.19 18.03H58.5v6.38H1.19zm.01 12.72h57.28v6.37H1.2zm-.03 12.82h57.34v6.48H1.17zm0 12.65h57.34v6.38H1.17zm.03 12.73h57.31v6.38H1.2z" fill="#dc2f34"/>
 <path d="M30.06 24.57a1.81 1.81 0 00-.8.58.89.89 0 00-.75.38.93.93 0 00-.18.56v.05a.9.9 0 00-.42.68h-.25a1.07 1.07 0 00-1.17 1.25 2.64 2.64 0 000 .29 1.41 1.41 0 00-.41-.07 1.29 1.29 0 00-.4.07 2.83 2.83 0 000-.29 1.07 1.07 0 00-1.17-1.25h-.25a.9.9 0 00-.42-.68v-.05a.92.92 0 00-.17-.56.9.9 0 00-.75-.38 1.86 1.86 0 00-.8-.58l-.24-.07-.24.07a1.81 1.81 0 00-.8.58.9.9 0 00-.75.38.92.92 0 00-.17.56v.05a.9.9 0 00-.42.68h-.25a1.07 1.07 0 00-1.17 1.25 1.53 1.53 0 000 .3 1.28 1.28 0 00-1.43.38 2.84 2.84 0 00.1-.76 2.43 2.43 0 00-.07-.61 1.31 1.31 0 00-.53-.86 1.16 1.16 0 00-.92-.06l-.23.08a1 1 0 00-.39-.47L14.5 26a1 1 0 00-.31-.55.93.93 0 00-.8-.18 1.42 1.42 0 00-1.07-.34l-.91.1 1.22 4.7a2.43 2.43 0 00.87 2.09 1.62 1.62 0 00-.27.92 1.7 1.7 0 00.68 1.38c0 .83.45 18.11.45 18.11A17.11 17.11 0 0019 64.3a15.64 15.64 0 0011.33 4.62 15.68 15.68 0 0011.31-4.62 17.11 17.11 0 004.62-12.12s.42-17.26.44-18.13a1.71 1.71 0 00.67-1.36 1.62 1.62 0 00-.27-.92 2.46 2.46 0 00.9-2.07l1.19-4.7-.91-.1a1.4 1.4 0 00-1.07.34.92.92 0 00-.8.18 1 1 0 00-.32.55l-.18.08a1 1 0 00-.39.47l-.24-.08a1.14 1.14 0 00-.91.06 1.27 1.27 0 00-.53.86 2.43 2.43 0 00-.07.61 3 3 0 00.12.84 1.34 1.34 0 00-1.06-.54 1.35 1.35 0 00-.41.07 2.64 2.64 0 000-.29 1.07 1.07 0 00-1.17-1.25H41a.9.9 0 00-.42-.68v-.05a.92.92 0 00-.17-.56.9.9 0 00-.75-.38 1.86 1.86 0 00-.8-.58l-.24-.07-.24.07a1.86 1.86 0 00-.8.58.9.9 0 00-.75.38.92.92 0 00-.17.56v.05a.9.9 0 00-.42.68h-.25a1.07 1.07 0 00-1.17 1.25 2.64 2.64 0 000 .29 1.35 1.35 0 00-.41-.07 1.15 1.15 0 00-.37.06 2.62 2.62 0 000-.28 1.07 1.07 0 00-1.16-1.25h-.25a.93.93 0 00-.42-.68v-.05a1 1 0 00-.17-.56.9.9 0 00-.75-.38 1.86 1.86 0 00-.8-.58l-.24-.07z" fill="#fff"/>
 <path d="M15.67 32.17c.19.09.61.29.61.42s-.16.25-.63.25-.59-.13-.59-.25.28-.27.61-.42m1.15-.53a4.58 4.58 0 00.93-.7 4.48 4.48 0 00.93.7h.07a3.19 3.19 0 00-1 .62 3.2 3.2 0 00-1-.63h.06m3 .57c.23.1.58.26.58.38s0 .25-.59.25-.59-.18-.59-.25.35-.27.6-.38m1.19-.54a3.71 3.71 0 00.93-.72 3.71 3.71 0 00.93.72l.09.05a3.15 3.15 0 00-1 .72 3.86 3.86 0 00-1-.71l.11-.06m3 .55c.25.11.6.27.6.38s0 .24-.58.24-.58-.18-.58-.24.33-.28.56-.38m1.19-.57a5.07 5.07 0 00.93-.7 4.93 4.93 0 00.93.7h.07a3.2 3.2 0 00-1 .65 3 3 0 00-1-.64h.08m3 .56c.24.11.58.27.58.39s-.32.25-.6.25-.59-.05-.59-.25.34-.27.61-.39m1.14-.54a3.71 3.71 0 00.93-.72 3.71 3.71 0 00.93.72l.08.05a3.09 3.09 0 00-1 .71 3.6 3.6 0 00-1-.7l.11-.06m3 .54c.28.12.62.28.62.39s0 .25-.6.25-.59-.17-.59-.25.34-.28.57-.39m1.18-.56a4.75 4.75 0 00.93-.7 5.27 5.27 0 00.93.7h.07a3.25 3.25 0 00-1 .64 3.45 3.45 0 00-1-.64h.06m3 .56c.24.11.58.27.58.39s-.2.25-.59.25-.6-.09-.6-.25.34-.27.61-.39m1.14-.54a3.71 3.71 0 00.93-.72 3.71 3.71 0 00.93.72l.13.07a3.63 3.63 0 00-1.05.74 3.62 3.62 0 00-1-.75l.1-.06m3 .55c.25.11.59.27.59.38s0 .24-.57.24-.58-.18-.58-.24.34-.28.56-.38m1.19-.57a5.07 5.07 0 00.93-.7 4.58 4.58 0 00.93.7h.06a3.15 3.15 0 00-1 .64 3 3 0 00-1-.63h.08m3 .53c.34.15.61.28.61.42s0 .25-.58.25c-.29 0-.63-.05-.63-.25s.41-.33.6-.42m3.29-6.58a.94.94 0 00-.83.45.7.7 0 00-.24-.11.33.33 0 00-.3 0c-.08.06-.11.18-.11.43v.32l-.2-.07a.41.41 0 00-.29 0 .24.24 0 00-.12.19.87.87 0 00.13.61.76.76 0 01.11.43.17.17 0 01-.22.12.48.48 0 01-.3-.29v-.05a1.27 1.27 0 00-.72-.55.51.51 0 00-.4 0c-.11.07-.16.22-.22.44a2 2 0 00-.05.43 2.44 2.44 0 00.28 1.12 2.07 2.07 0 00-.34.66.85.85 0 000 .25c0 .2.12.3.4.37a1.86 1.86 0 001.15-.19 1.19 1.19 0 01.46-.12c.09 0 .09 0 .09.12 0 .35-.58.76-1.55 1.09a4.51 4.51 0 01-1.74-1.06.66.66 0 00-.3-1.25.66.66 0 00-.3 1.24 4.62 4.62 0 01-1.77 1.08c-1-.33-1.58-.74-1.58-1.1a.14.14 0 01.14-.15 1.08 1.08 0 01.41.24 1.88 1.88 0 001.07.47c.39 0 .5-.11.5-.51a2.15 2.15 0 00-.16-.72 2.36 2.36 0 00.6-1.44c0-.47-.06-.58-.49-.58a1.21 1.21 0 00-.83.36.52.52 0 01-.36.21c-.18 0-.19-.13-.19-.17a.71.71 0 01.22-.39.91.91 0 00.28-.56c0-.26-.17-.29-.36-.29h-.21a2.27 2.27 0 00.14-.58.26.26 0 00-.33-.28 1.05 1.05 0 00-.26.05 1.22 1.22 0 00-.67-.65h-.06a1.22 1.22 0 00-.67.65 1.05 1.05 0 00-.26-.05.26.26 0 00-.33.28 1.9 1.9 0 00.14.58h-.21c-.19 0-.36 0-.36.29a.91.91 0 00.28.56.71.71 0 01.22.39s0 .17-.19.17a.52.52 0 01-.36-.21 1.21 1.21 0 00-.83-.36c-.43 0-.49.11-.49.58a2.32 2.32 0 00.6 1.44 2.15 2.15 0 00-.16.72c0 .4.11.51.5.51a1.88 1.88 0 001.07-.47 1.08 1.08 0 01.41-.24.14.14 0 01.14.15c0 .36-.58.76-1.56 1.09a4.48 4.48 0 01-1.75-1.07.66.66 0 10-1-.58.65.65 0 00.35.58 4.53 4.53 0 01-1.75 1.08c-1-.34-1.56-.74-1.56-1.1 0 0 0-.15.13-.15s.25.12.42.24a1.85 1.85 0 001.06.47c.4 0 .51-.11.51-.51a2.21 2.21 0 00-.17-.72 2.34 2.34 0 00.61-1.44c0-.47-.06-.58-.49-.58a1.21 1.21 0 00-.83.36.49.49 0 01-.36.21.16.16 0 01-.18-.17.71.71 0 01.22-.39A.9.9 0 0032 27c0-.26-.17-.29-.35-.29h-.21a2.27 2.27 0 00.14-.58.26.26 0 00-.33-.28 1.05 1.05 0 00-.26.05 1.22 1.22 0 00-.67-.65h-.07a1.24 1.24 0 00-.66.65 1.14 1.14 0 00-.26-.05.35.35 0 00-.29.1.32.32 0 000 .18 2.13 2.13 0 00.13.58h-.21c-.18 0-.35 0-.35.29a.91.91 0 00.28.56.71.71 0 01.22.39.17.17 0 01-.19.17c-.16 0-.25-.1-.36-.21a1.23 1.23 0 00-.83-.36c-.44 0-.49.11-.49.58a2.32 2.32 0 00.6 1.44 2.15 2.15 0 00-.16.72c0 .4.11.51.5.51a1.88 1.88 0 001.07-.47 1.08 1.08 0 01.35-.33.14.14 0 01.14.15c0 .36-.58.76-1.56 1.09a4.48 4.48 0 01-1.75-1.07.65.65 0 10-.6 0 4.43 4.43 0 01-1.77 1.08c-1-.33-1.57-.74-1.57-1.1a.14.14 0 01.14-.15 1.15 1.15 0 01.41.24 1.88 1.88 0 001.07.47c.39 0 .5-.11.5-.51a2.15 2.15 0 00-.16-.72 2.3 2.3 0 00.6-1.44c0-.47-.06-.58-.49-.58a1.21 1.21 0 00-.83.36.52.52 0 01-.36.21c-.18 0-.19-.13-.19-.17a.71.71 0 01.22-.39.91.91 0 00.28-.56c0-.26-.17-.29-.36-.29h-.21a2.27 2.27 0 00.14-.58.26.26 0 00-.33-.28 1.05 1.05 0 00-.26.05 1.22 1.22 0 00-.67-.65h-.09a1.22 1.22 0 00-.67.65 1.05 1.05 0 00-.26-.05.26.26 0 00-.33.28 1.9 1.9 0 00.14.58h-.21c-.19 0-.36 0-.36.29a.91.91 0 00.28.56.71.71 0 01.22.39.17.17 0 01-.19.17.52.52 0 01-.36-.21 1.21 1.21 0 00-.83-.36c-.43 0-.49.11-.49.58a2.32 2.32 0 00.6 1.44 2.15 2.15 0 00-.16.72c0 .4.11.51.5.51a1.88 1.88 0 001.07-.47 1.08 1.08 0 01.41-.24.14.14 0 01.14.15c0 .36-.58.76-1.57 1.1a4.53 4.53 0 01-1.75-1.08.66.66 0 10-1-.58.67.67 0 00.36.59 4.48 4.48 0 01-1.75 1.06c-1-.33-1.55-.74-1.55-1.09 0-.09 0-.09.1-.12a1.19 1.19 0 01.46.12 1.79 1.79 0 001.15.19.62.62 0 00.36-.2.33.33 0 000-.17 1.41 1.41 0 000-.25 2.3 2.3 0 00-.34-.66 2.58 2.58 0 00.29-1.06 1.49 1.49 0 00-.06-.43c-.05-.22-.1-.37-.21-.44a.53.53 0 00-.41 0 1.25 1.25 0 00-.71.55v.05c-.08.13-.15.25-.3.29a.16.16 0 01-.22-.12.76.76 0 01.11-.43.87.87 0 00.13-.61.3.3 0 00-.12-.19.41.41 0 00-.29 0l-.21.07v-.32c0-.25 0-.37-.12-.43a.31.31 0 00-.29 0 .7.7 0 00-.24.11 1 1 0 00-.83-.45h-.13l1 4a1.8 1.8 0 001.12 2l.22.1a1.16 1.16 0 00-.74 1 1 1 0 00.79 1c.06 2.57.45 18.46.45 18.47a16.31 16.31 0 004.4 11.56 14.9 14.9 0 0010.77 4.38 14.92 14.92 0 0010.77-4.38 16.35 16.35 0 004.39-11.57l.46-18.47a1 1 0 00.77-1 1.16 1.16 0 00-.74-1l.21-.1a1.81 1.81 0 001.13-2l1-4z" fill="#1d1d1b"/>
 <g fill="#004996">
  <path d="M40.14 49.4l-.56-.31c-1.15-.71-2.87-2.94-2.87-4.59a2.81 2.81 0 010-.29h-1.14a2.68 2.68 0 01-.46.93 2.29 2.29 0 00-.3 1.23v.5h-.19a1.44 1.44 0 01-.85-.11 1.6 1.6 0 00.26.79l.1.13-.1.14a1.44 1.44 0 01-.33.32 4 4 0 00.69.61c.55.36 1.13.68 1.7 1 1.67.94 3.25 1.83 3.25 3.24a1.42 1.42 0 01-.14.65 1.51 1.51 0 00.8.18 2.11 2.11 0 002.17-2.2c0-1.09-1.05-1.68-2.06-2.26m-9.83-10.03A1.15 1.15 0 0030 39a1.39 1.39 0 00-.66-.34 1.17 1.17 0 01-.25.53 2.2 2.2 0 01-.19.21 3.38 3.38 0 01.72-.09h.63"/>
  <path d="M43.54 51.12a6.36 6.36 0 010 .67 3.19 3.19 0 01-.32 1.47 1.17 1.17 0 01.67.13l.29.17-.25.21a4.25 4.25 0 00-.7.74l-.15.19a1.42 1.42 0 01-1.23.53 1 1 0 01-.55-.23 2.67 2.67 0 01-1.44.37 4.72 4.72 0 01-1.72-.37 1.53 1.53 0 00-1 1.4 1.49 1.49 0 001.2 1.44 1.47 1.47 0 011-.33 1.33 1.33 0 011.27 1.39 3.09 3.09 0 01-.12.82 2.81 2.81 0 00-.11.78.57.57 0 00.2.42l.15.12-.1.17a1.15 1.15 0 01-1.27.35.9.9 0 01-.34.55l-.08.06h-.1a.73.73 0 01-.44-.25 3.8 3.8 0 01-.77.9.65.65 0 01.22.47.67.67 0 01-.09.34.74.74 0 01.19.49 1.12 1.12 0 01-.79.94H37l-.08-.06a.85.85 0 00-.37-.44.69.69 0 01-.63-.13 1.33 1.33 0 01-.42.46v.07a.89.89 0 01-.13.46 1 1 0 01-.55.5 1.52 1.52 0 01-.69.87l-.3.16v-.34a1.83 1.83 0 00-.25-.78 1 1 0 01-.39-.29 1.2 1.2 0 01-.84.16 1.67 1.67 0 00-.6.54l-.12.15-.16-.09a.9.9 0 01-.41-.77.85.85 0 01.39-.81.76.76 0 010-.14.93.93 0 01.37-.77 1.07 1.07 0 01-.2-.36.61.61 0 00-.32.18l-.33.35-.06-.47a1.39 1.39 0 01.24-1.12.86.86 0 01.68-.29.85.85 0 01.55.16 1.12 1.12 0 01.31 0 1 1 0 01.53.16.67.67 0 00.41.12 2.43 2.43 0 001.4-.79 2.5 2.5 0 00.63-1.17 4 4 0 00-.23.39l-.09.16h-.18a1.31 1.31 0 01-.79-.92 1.29 1.29 0 01-.47.23l-.28.08v-.3c0-.62-.1-.73-.67-1.31l-.26-.28a3.4 3.4 0 01-1-2.63 1.46 1.46 0 010-.29h-.35a1.14 1.14 0 00-1.11 1.09.74.74 0 00.13.41 2.15 2.15 0 01.27 1.16 2.89 2.89 0 01-1.5 2.44l-.33.22v-.41a3.09 3.09 0 000-.35 2.37 2.37 0 01-.78.55l-.19.07-.2-.4A9.47 9.47 0 0126 61a.31.31 0 010 .1 1.29 1.29 0 01-.26.71.91.91 0 01-.91.81h-.33l.1-.32a.35.35 0 00-.15-.39 1.18 1.18 0 01-.6-.52 1.43 1.43 0 01-.28.07 1.28 1.28 0 01-.26.79 1.12 1.12 0 01-.69.37 1.59 1.59 0 01-.41.55l-.12.09-.09-.04a1.18 1.18 0 01-.61-.85.68.68 0 01-.27-.39.83.83 0 010-.22 1.13 1.13 0 01.06-.36H21a.64.64 0 01-.46-.19 1 1 0 00-.35.37l-.16.3-.21-.25a1.25 1.25 0 01-.32-.86 1 1 0 01.91-1 1 1 0 01.72-.35h.3a1.09 1.09 0 00-.46-.06h-.26v-.26a1 1 0 01.88-.88.81.81 0 01.62.22h.24a1 1 0 01.73.3.51.51 0 00.36.17 2.93 2.93 0 001.79-.74 1 1 0 01-.33-.18l-.2-.15.17-.18c.27-.29.32-.44.32-1.49a3.1 3.1 0 011.28-2.44 5.15 5.15 0 013.16-1h1.55s.12 0 .33-.25a7.26 7.26 0 01-4.55-1.83.89.89 0 01-.45.53l-.11.06-.1-.07a2.87 2.87 0 00-1.17-.45 1.34 1.34 0 01-.56.81l-.17.09-.22-.3a2.2 2.2 0 00-.47-.54.9.9 0 01-.35.47l-.13.08-.21-.13a2.23 2.23 0 00-1.42-.49 1.91 1.91 0 00-.77.17.91.91 0 01.07.35.84.84 0 01-.25.56.71.71 0 01-.18.12 1.24 1.24 0 01-.55.73l-.16.11-.13-.15a1.54 1.54 0 01-.28-.46.92.92 0 01-.49-.27.75.75 0 00-.08.35.74.74 0 01-.49.61 1.22 1.22 0 00-.09.47v.23h-.22a.85.85 0 01-.62-.23.8.8 0 01-.28-.53v-.06a.76.76 0 01-.29-.67 1.7 1.7 0 010-.22h-.17a.69.69 0 00-.32.38l-.12.3-.26-.24a1 1 0 01-.42-.82.83.83 0 01.46-.74.13.13 0 010-.06.65.65 0 01.13-.39.77.77 0 01.43-.3.89.89 0 01-.2-.44 1.06 1.06 0 00-.5-.12h-.33l.12-.31a1.11 1.11 0 011-.71 1.39 1.39 0 01.56.1h.15a1 1 0 01.55.25.86.86 0 00.47.21 5 5 0 00.88-.32 6.94 6.94 0 01.94-.36A7.16 7.16 0 0022 47.24a1.34 1.34 0 01-.12-.24l-.09-.21.21-.09a1.08 1.08 0 00.24-.14 1.76 1.76 0 00-.18-.68 1.28 1.28 0 01-1 .29h-.27l.1-.26a3.18 3.18 0 00.19-1 2.6 2.6 0 00-.07-.61.92.92 0 01-.61.18h-.23v-.22a4 4 0 00-.83-2.4h-.07a1.2 1.2 0 01-1 .62 1 1 0 01-.85-.51l-.15-.27.3-.06a.84.84 0 00.43-.23 1.33 1.33 0 01-.3-.69 1.5 1.5 0 01-.61-.28.86.86 0 00-.39.45l-.13.35-.25-.29a1.2 1.2 0 01-.31-.85 1 1 0 01.84-1 .91.91 0 01.77-.36h.11a.81.81 0 01-.47-.71.72.72 0 01.06-.29 1 1 0 00-.3-.09h-.2v-.2a1 1 0 01.92-.85.91.91 0 01.87.54.59.59 0 01.27.17.7.7 0 01.2.33.81.81 0 010-.16v-.06a.58.58 0 010-.18 1.52 1.52 0 00-.39-.35l-.19-.12.11-.19a1 1 0 01.87-.4 1 1 0 01.93.79.63.63 0 01.38.58 2.28 2.28 0 01-.1.6 1.66 1.66 0 00-.08.37c0 .31.25.61.64 1.05a13.45 13.45 0 01.85 1 12.77 12.77 0 002.67 1.73 2.19 2.19 0 01.59-.75l.15-.12.14.13a1.77 1.77 0 001.29.55v-.92h.22a1.27 1.27 0 01.58.24 2.87 2.87 0 001.46.5c.24 0 .66-.08.66-.37s-.11-.28-.19-.28-.27.28-.62.28a.82.82 0 01-.86-.73.4.4 0 010-.2.37.37 0 010-.27 4.47 4.47 0 01-1.38.29c-.86 0-1.77-.45-1.77-1.45a.94.94 0 01.9-1 .69.69 0 01.41.13l.15.12-.13.11a1 1 0 00-.21.58c0 .31.36.66 1.14.66a3.94 3.94 0 00.71-.09.69.69 0 01-.05-.13h-.11a1.11 1.11 0 01-.8-1 1 1 0 01.09-.42.51.51 0 01-.12-.39c0-.6 1-1.25 1.39-1.48a3.05 3.05 0 012.76-1.42 1.69 1.69 0 011-.25 2.13 2.13 0 01.52.07 1.15 1.15 0 01.63-.21 1 1 0 01.75.83 2.76 2.76 0 00.9.32h.25l-.06.25a1 1 0 01-.23.4c.16.1.3.2.43.3a3.55 3.55 0 00.69.44l.24.11-.15.22a1.49 1.49 0 01-.34.36 3.1 3.1 0 01.52 1.07 3.4 3.4 0 00.83 1.22l.25.24-.31.14a2.53 2.53 0 01-.67.16 4.08 4.08 0 010 .67 14.8 14.8 0 01-.16 2v.15a1.07 1.07 0 00.19.6l.23.35a4.57 4.57 0 011.77-3.4 2.77 2.77 0 010-.39 2.85 2.85 0 011.94-2.68h.07c.13-.06.34-.18.52-.28l.55-.3.08.27a1.84 1.84 0 01.06.5 1.37 1.37 0 010 .36 3 3 0 001.56-1.5l.22-.56.2.57a4.34 4.34 0 01.2 1.45c0 1.44-.9 3.11-3.43 3.49a2.48 2.48 0 00-2 1.3 3 3 0 011.3-.35l.71-.06-.55.46a3.81 3.81 0 011-.11 2.36 2.36 0 001.63-.46l.51-.39-.16.62c-.22.89-1.09 1.2-1.94 1.51-1 .36-2 .7-2 1.94a1.59 1.59 0 00.61 1.26v-.35A1.35 1.35 0 0141 46a3.26 3.26 0 01.79.13 2.9 2.9 0 00.51.09.69.69 0 00.63-.34l.41-.6V46c0 .77-.66 1-1.19 1.26s-.87.38-.87.77.52.93 1 1.25a1.36 1.36 0 01.77-.82l.3-.1a1.24 1.24 0 00.6-.34l.21-.21.14.26a1.23 1.23 0 01.13.64 2 2 0 01-.43 1.06 1.86 1.86 0 00-.42 1v.35M14.93 33.9l.45 18.33c0 9.41 6.56 15.68 14.92 15.68s14.92-6.27 14.92-15.68l.45-18.33z"/>
  <path d="M28.81 40.32h.8c.29 0 .6 0 .74-.29a4.14 4.14 0 00-.81-.07 2.85 2.85 0 00-.89.15.38.38 0 00.11.16"/>
 </g>
 <g fill="#fff">
  <path d="M42.7 53.73a3.81 3.81 0 00.58-3c0-.83.86-1.38.86-2.07a1 1 0 00-.1-.52 2.17 2.17 0 01-1 .49 1 1 0 00-.66 1C41.86 49.3 41 48.81 41 48c0-1.13 2.07-.82 2.07-2a.92.92 0 01-.82.44c-.36 0-.83-.22-1.3-.22a1.14 1.14 0 00-1.25.92 1.55 1.55 0 00.15.81 1.82 1.82 0 01-1.2-1.72c0-2.5 3.49-1.76 3.93-3.49-1.23.94-2.15.12-3.3.87a1.1 1.1 0 01.44-.7 2.69 2.69 0 00-1.84.79 2.79 2.79 0 012.48-2.19c2.2-.33 3.24-1.73 3.24-3.26a4.07 4.07 0 00-.19-1.38 3.43 3.43 0 01-2.14 1.81 1.63 1.63 0 00.13-1.19c-.18.09-.6.34-.84.46a2.64 2.64 0 00-1.84 3 4.4 4.4 0 00-1.78 3.6c0 1.57 1.66 3.72 2.76 4.39s2.72 1.31 2.72 2.77A2.34 2.34 0 0140 54.12a1.59 1.59 0 01-1.11-.35 1 1 0 00.23-.71c0-1.72-2.62-2.66-4.85-4.05a3 3 0 01-.76-.68 2.19 2.19 0 01-.93.15 3.8 3.8 0 01-1.15-.25 6.19 6.19 0 01-4 1.36c-1 0-1.59-.35-2.45-.35a1.46 1.46 0 00-1.22.52 1.22 1.22 0 01-.5-1.59 1.92 1.92 0 01-1.2-.75 7.58 7.58 0 01-1.74.93c-.49.12-1.59.68-1.88.68s-.71-.45-1-.45a.91.91 0 00-.78.7.9.9 0 00.54.73c-.68 0-.9.18-.87.6a.77.77 0 01.53.89.28.28 0 00.34.11c-.05.21-.17.64.15.9a.52.52 0 01.51-.31.58.58 0 01.49.38.43.43 0 00.33-.38c0-.4.2-.67.37-.68a.58.58 0 00.45.38.48.48 0 01.46-.58.55.55 0 01.55.36.58.58 0 00.12-.9 1.91 1.91 0 011.09-.33 2.59 2.59 0 011.63.58.73.73 0 00.32-.55c.34 0 .59.37.91.81a1 1 0 00.46-.85 3 3 0 011.49.5.86.86 0 00.41-.76A7.2 7.2 0 0032 52.25a2.84 2.84 0 012.51 1.41 2 2 0 00-.9-.18c-1 0-1.79 1.19-1.79 2.39a3.19 3.19 0 001 2.47c.79.83 1 .93 1 1.75a.89.89 0 00.66-.61 1.33 1.33 0 00.73 1.3 2.06 2.06 0 01.71-.88 2.83 2.83 0 01-2.31 2.78c-.5 0-.53-.27-.94-.27a.87.87 0 00-.87.79.71.71 0 00.38.6c-.48.25-.54.5-.5.85a.62.62 0 01.73.8.91.91 0 00.83-.26.63.63 0 00.44.4.66.66 0 01.57-.38.52.52 0 01.55.43.75.75 0 00.45-.91 1 1 0 00.58-.75c.19.24.44.43.7.31a.75.75 0 01.64-.8.86.86 0 01.38.07.46.46 0 00.06-.25.63.63 0 00-.35-.48 3.13 3.13 0 001.14-1.41.61.61 0 00.47.56.79.79 0 00.29-.65c.53.17 1.08.13 1.27-.19a.8.8 0 01-.29-.6c0-.69.24-1 .24-1.59a1.11 1.11 0 00-1-1.17 1.22 1.22 0 00-.89.34A1.7 1.7 0 0137 56.44a1.78 1.78 0 011.19-1.64 4.59 4.59 0 001.73.37 2.23 2.23 0 001.45-.43.81.81 0 00.58.27 1.22 1.22 0 001.06-.45 6 6 0 01.87-1 1 1 0 00-1.11.13"/>
  <path d="M22.78 45.58a3.39 3.39 0 011.94-1.77 3.32 3.32 0 01-.09-.78 2.44 2.44 0 01.09-.54 12.2 12.2 0 01-2.79-1.82c-.84-1.17-1.54-1.6-1.53-2.24 0-.26.18-.63.18-1s-.41-.48-.67-.48-.62.09-.63.37a1.78 1.78 0 00.13.66 1.68 1.68 0 010 .67 1.62 1.62 0 01-.54-.94.55.55 0 00-.59-.52c-.32 0-.82.39-.82.75s.24.44.46.58a.8.8 0 01.39.54 1.24 1.24 0 00-.71-.19.62.62 0 00-.68.64c0 .62.46.86 1 .93a1.13 1.13 0 001.08 1.2.5.5 0 00.39-.18 4.29 4.29 0 011 2.72.59.59 0 00.69-.58 3.3 3.3 0 010 2.34.89.89 0 001-.48 1.75 1.75 0 01.35 1 4.77 4.77 0 00.39-.84m11.23 7.71a3.24 3.24 0 00-2.13-.87 2.25 2.25 0 011.42.83 1.53 1.53 0 01.72 0m-2.29-.64a.72.72 0 01-.45.3h-1.55c-2.43 0-4.22 1.5-4.22 3.23 0 1.05-.05 1.28-.38 1.64a.87.87 0 00.56.18c-.32.86-1.8 1.14-2.15 1.14-.51 0-.52-.47-1.09-.47-.36 0-.83.17-.83.59a1.14 1.14 0 00.12.52 1.34 1.34 0 00-.63-.14.75.75 0 00-.72.74c0 .4.27.8.58.8a1.89 1.89 0 00.49 0c-.29.39-.35.74-.05 1a.68.68 0 01.65-.37.56.56 0 01.53.68.91.91 0 00.69-1.13.93.93 0 00.63-.19.86.86 0 00.54.63.74.74 0 01.58-.41.57.57 0 01.53.27.72.72 0 00.11-.77A7.26 7.26 0 0027.6 60l.23.44a2.05 2.05 0 00.91-.76 1.31 1.31 0 01.21.78 2.66 2.66 0 001.4-2.25c0-1-.4-1-.4-1.58a1.38 1.38 0 011.34-1.31h.36a2.57 2.57 0 011.42-2 2.35 2.35 0 00-1.3-.72m-3.6-13.1a.58.58 0 000 .11h.19v-.08a.74.74 0 01-.25 0m.26.94a.33.33 0 01.23-.13.31.31 0 01-.07-.14l-.16.06a.29.29 0 000 .21"/>
  <path d="M29.94 37a1.42 1.42 0 00-.2-.25.48.48 0 01-.39.29.42.42 0 01-.41-.43.58.58 0 01.12-.32 1.42 1.42 0 011 .61l-.13.1m6.14 6.11a7.12 7.12 0 00.05-2.79 2.58 2.58 0 00.86-.17 3.56 3.56 0 01-.88-1.34c-.12-.4-.4-1.05-.74-1.18a1 1 0 00.58-.44c-.58-.27-.83-.62-1.41-.91a.84.84 0 00.4-.49 3.25 3.25 0 01-.88-.29 1.38 1.38 0 01-.37.69l-.17-.14a1.19 1.19 0 00.33-.66.94.94 0 00-.42-.71c-.19-.1-.35-.08-.74.18-.13.09-.44.36-.61.51l-.07-.14c.17-.16.38-.33.49-.42a1 1 0 00-.28 0 1.44 1.44 0 00-.91.24 2.83 2.83 0 00-2.66 1.36c-.63.36-1.32.92-1.32 1.32a.54.54 0 000 .22 2.37 2.37 0 00.49-.36l.1.11a4 4 0 01-.5.4.8.8 0 00-.1.44.94.94 0 001 .83.89.89 0 00.9-.93 1.47 1.47 0 011.44 1.43c0 .68-.75.75-1 .75s-.46-.08-.75-.08-.43.1-.43.3.31.49.64.49.36-.26.62-.26.41.08.41.5-.44.6-.89.6c-1 0-1.73-.74-2-.74v.92a2 2 0 01-1.66-.62 1.83 1.83 0 00-.78 1.27 3 3 0 00.12 1 3 3 0 00-2.05 1.81c-.26.59-.33.9-.85 1.12A1.79 1.79 0 0023.59 48c-.39.43-.16 1.39.13 1.43a1.67 1.67 0 011.21-.43c1 0 1.54.35 2.51.35A5.63 5.63 0 0031.35 48a3.7 3.7 0 001.28.3 1.52 1.52 0 001.24-.53 1.56 1.56 0 01-.25-1.28 1.29 1.29 0 001 .24 2.61 2.61 0 01.31-1.73 2.78 2.78 0 00.46-1h.91a1.33 1.33 0 01-.22-.9"/>
  <path d="M29.1 36.63a.29.29 0 00.29.3.4.4 0 00.3-.24.9.9 0 00-.54-.27.36.36 0 00-.05.21m1.27 2.9a4.68 4.68 0 00-.72 0 4.6 4.6 0 00-1.3.26 2.93 2.93 0 01-1 .18c-.95 0-1.32-.47-1.32-.85a1 1 0 01.25-.66.48.48 0 00-.29-.09.76.76 0 00-.71.84c0 .86.8 1.26 1.58 1.26a5 5 0 001.68-.47 3.44 3.44 0 011-.21 3.05 3.05 0 01.86.09.31.31 0 000-.1.91.91 0 000-.27"/>
 </g>
 <path d="M19.77 36.8a1.28 1.28 0 01.41.05.73.73 0 00-.72-.54.79.79 0 00-.69.32 1.08 1.08 0 01.46.39.74.74 0 01.54-.22m-1.43.26a.67.67 0 00-.64-.33.75.75 0 00-.71.69 1 1 0 01.44.12 1.14 1.14 0 01.91-.48m-1.57 2.21a.8.8 0 00-.6.8 1.25 1.25 0 00.32.77.84.84 0 01.45-.6 1.08 1.08 0 01-.17-1m1.36 2.25a1.11 1.11 0 01-.6.28.92.92 0 00.71.46 1 1 0 00.77-.42 1.13 1.13 0 01-.88-.32m-1.9 9.28a.53.53 0 00-.37.53 1.07 1.07 0 00.43.77.83.83 0 01.39-.54.62.62 0 00-.45-.76m.85-2.29a1.87 1.87 0 00-.3 0 .92.92 0 00-.85.63 1 1 0 01.54.1 1 1 0 01.61-.7m.74 3.89a.4.4 0 00-.37.28.67.67 0 00.68.65 1.38 1.38 0 01.08-.56c-.07-.22-.21-.37-.39-.37m2.18-.92c-.35 0-.32.35-.31.56a1.69 1.69 0 00.28.44c.36-.25.41-.39.46-.61s-.22-.39-.43-.39m2 7.02a.55.55 0 00-.37-.11.74.74 0 00-.7.74 1.21 1.21 0 01.5 0c0-.33.24-.53.57-.66m-1.65 1.46a.82.82 0 00-.62.78 1.19 1.19 0 00.3.78 1 1 0 01.41-.49 1 1 0 01-.09-1.07M22.07 62a.53.53 0 00-.51.37.92.92 0 00.49.69 1.14 1.14 0 00.36-.46c.09-.21 0-.6-.34-.6m3.03-.48c-.27 0-.45.32-.45.32a.47.47 0 01.1.6c.39 0 .81-.3.77-.6 0 0-.15-.32-.42-.32m7.01.82a.75.75 0 00-.3-.06c-.58 0-.83.5-.7 1.17a.77.77 0 01.45-.28.91.91 0 01.55-.83m-.33 2.48a.83.83 0 00-.28.05.69.69 0 00-.24.6.66.66 0 00.31.6 1.67 1.67 0 01.59-.58c.12-.32 0-.67-.38-.67m2.44.57c-.19 0-.33.13-.45.35a2.48 2.48 0 01.24.87 1.24 1.24 0 00.6-.78c0-.2-.14-.44-.39-.44m2.5-1.03c.14.06.25.16.4.49a.83.83 0 00.57-.68.66.66 0 00-.12-.35.79.79 0 00-.42-.12.58.58 0 00-.43.66" fill="#f3d240"/>
 <g fill="#dc2f34">
  <path d="M41.49 41.21a3.13 3.13 0 002.1-3 2.53 2.53 0 000-.28h-1a3.87 3.87 0 01-1.3.71 1.59 1.59 0 00.13-1.19c-.18.09-.6.34-.84.46a2.63 2.63 0 00-1.79 3l-.32.28zm-23.59-.73a1.1 1.1 0 00.25.73h4.41a2.93 2.93 0 01-.63-.54c-.84-1.17-1.54-1.6-1.53-2.24a2.31 2.31 0 01.09-.46H19.4v.05a1.68 1.68 0 010 .67 2.29 2.29 0 01-.5-.72h-1.44c0 .32.24.44.46.58a.8.8 0 01.39.54 1.24 1.24 0 00-.71-.19.62.62 0 00-.68.64c0 .62.46.86 1 .93m10.34-1.13a.89.89 0 00.9-.93 1.47 1.47 0 011.44 1.43c0 .68-.75.75-1 .75s-.46-.08-.75-.08-.43.1-.43.3a.49.49 0 00.29.4.68.68 0 00.35.09.45.45 0 00.29-.09c.1-.08.17-.17.33-.17a.38.38 0 01.33.17h6.24a2.59 2.59 0 00-.11-.89 2.58 2.58 0 00.86-.17 3.56 3.56 0 01-.88-1.34 3.47 3.47 0 00-.38-.84h-8.19l-.15.1a.8.8 0 00-.1.44.94.94 0 001 .83"/>
  <path d="M28.42 39.48a.74.74 0 01-.25 0 .58.58 0 000 .11h.19v-.08m.24.83a.31.31 0 01-.07-.14l-.16.06a.29.29 0 000 .21.33.33 0 01.23-.13m11.54 3.97h-3.21v.22a5.47 5.47 0 001.32 3h1a1.81 1.81 0 01-.56-1.32 2 2 0 011.5-1.92m.97 3.26c.48-.6 1.9-.55 1.9-1.55a.92.92 0 01-.82.44c-.36 0-.83-.22-1.3-.22a1.14 1.14 0 00-1.25.92 2.62 2.62 0 000 .41zm-20.09-1.61a.87.87 0 001-.48 1.71 1.71 0 01.36 1 4.77 4.77 0 00.39-.84 4.36 4.36 0 011-1.27h-2.59a3.15 3.15 0 01-.16 1.63"/>
  <path d="M22.88 45.8c-.26.59-.33.9-.85 1.12a1.74 1.74 0 00.44.63h11.28a1.42 1.42 0 01-.13-1.07 1.29 1.29 0 001 .24 2.61 2.61 0 01.31-1.72 2.65 2.65 0 00.37-.73H24.12a3.43 3.43 0 00-1.24 1.49m19.82 7.97a3.81 3.81 0 00.58-3v-.11h-1.2a1.77 1.77 0 01.32 1 2.35 2.35 0 01-1.34 2.2h2.42l.32-.29a1 1 0 00-1.11.13m-5.54-3.01h-9.67a7.38 7.38 0 004.52 1.6 2.84 2.84 0 012.51 1.41 2 2 0 00-.9-.18 1.45 1.45 0 00-1 .42h6.49l-.19-.13a1 1 0 00.23-.71c0-1-.85-1.7-2-2.41m-16.34.55a.47.47 0 00-.16-.42.85.85 0 01.2-.13h-4.36a.8.8 0 01.39.85.28.28 0 00.34.11c-.05.21-.17.64.15.9a.52.52 0 01.51-.31.57.57 0 01.49.38.42.42 0 00.32-.38c0-.4.21-.67.38-.68a.58.58 0 00.45.38.48.48 0 01.46-.58.55.55 0 01.55.36.47.47 0 00.28-.48m5.74-.26a.58.58 0 00.29-.29H26a4.63 4.63 0 01.53.29m-2.89-.29h-.91c.21.11.41.24.63.38a.66.66 0 00.28-.38m.95.64a1 1 0 00.45-.64h-.95a6.54 6.54 0 01.5.64"/>
  <path d="M33.33 53.3a1.53 1.53 0 01.72 0 3.24 3.24 0 00-2.13-.87 2.25 2.25 0 011.42.83m-.27.1a2.48 2.48 0 00-1.3-.72.7.7 0 01-.45.31h-1.55a4.84 4.84 0 00-3 1h5.59a1.88 1.88 0 01.74-.54m6.21 4.37a1.22 1.22 0 00-.89.34A1.64 1.64 0 0137 57h-5a3.38 3.38 0 00.83 1.34c.79.83 1 .93 1 1.75a.93.93 0 00.67-.61 1.84 1.84 0 00.16.76h.9a1.32 1.32 0 01.37-.34v.34h4.25a9.9 9.9 0 00.18-1.24 1.11 1.11 0 00-1-1.17M25.52 57a1.14 1.14 0 01-.35.79.87.87 0 00.56.18c-.32.86-1.8 1.14-2.15 1.14-.51 0-.52-.47-1.09-.47-.36 0-.83.17-.83.59a1.14 1.14 0 00.12.52 1.34 1.34 0 00-.63-.14.76.76 0 00-.71.63h6.84a3 3 0 00.32-.2l.1.2h.55a2 2 0 00.49-.52 1 1 0 01.19.52h.37a2.45 2.45 0 001.05-2A2.24 2.24 0 0030 57zm6.64 6.8c-.48.25-.54.5-.5.85a.62.62 0 01.73.8.91.91 0 00.83-.26.63.63 0 00.44.4.66.66 0 01.57-.38.52.52 0 01.55.43.75.75 0 00.45-.91 1 1 0 00.58-.75c.19.24.43.43.7.31a.75.75 0 01.64-.8.86.86 0 01.38.07.57.57 0 00.06-.24h-5.8a.73.73 0 00.37.48m-1.79-24.27a4.68 4.68 0 00-.72 0 4.6 4.6 0 00-1.3.26 2.93 2.93 0 01-1 .18c-.95 0-1.32-.47-1.32-.85a1 1 0 01.25-.66.48.48 0 00-.29-.09.76.76 0 00-.71.84c0 .86.8 1.26 1.58 1.26a5 5 0 001.68-.47 3.44 3.44 0 011-.21 3.05 3.05 0 01.86.09.31.31 0 000-.1.91.91 0 000-.27"/>
 </g>
 <path d="M14 30.18a.28.28 0 01.25-.32 1.1 1.1 0 01.58.13 1.75 1.75 0 001 .18c.14 0 .21-.07.23-.11s0-.11 0-.26a2 2 0 00-.34-.65v-.05a2.12 2.12 0 00.24-1.46c0-.15-.08-.29-.13-.31s-.14 0-.25 0a1 1 0 00-.59.46.71.71 0 01-.42.39.37.37 0 01-.47-.26.87.87 0 01.13-.58.77.77 0 00.12-.47v-.06h-.14a2 2 0 00-.34.13l-.14.08v-.17c0-.17.06-.7 0-.77a.19.19 0 00-.11 0 .77.77 0 00-.27.14l-.09.07-.05-.1a.86.86 0 00-.58-.45c.06.22 1 3.79 1 3.79 0 1 .21 1.4 1 1.82l.38.18.52-.21C14.47 31 14 30.61 14 30.18" fill="#f3d240"/>
 <path d="M47.49 26.24l-.05.1-.08-.07a.77.77 0 00-.27-.14.22.22 0 00-.12 0 2.16 2.16 0 000 .77v.17l-.15-.07a1.89 1.89 0 00-.33-.13h-.14v.06a.71.71 0 00.12.47.93.93 0 01.12.58.36.36 0 01-.46.26.68.68 0 01-.42-.39 1 1 0 00-.59-.46c-.1 0-.21-.06-.25 0s-.08.16-.12.31a2.07 2.07 0 00.24 1.46v.05a2 2 0 00-.34.65c-.08.28-.06.3.21.37a1.7 1.7 0 001-.18 1.13 1.13 0 01.59-.13.28.28 0 01.25.32c0 .45-.58.9-1.63 1.26 0 0-.46.15-.89.32a3.31 3.31 0 00-1.24.78l-.07.08-.07-.08a2.88 2.88 0 00-1.15-.74l-.65.29c.36.16.57.3.57.5s-.26.45-.77.45-.78-.15-.78-.45.3-.39.72-.58l.68-.31.45-.24a4.35 4.35 0 001-.74l.06-.07.07.07a4.06 4.06 0 001 .74l.2.11a4.53 4.53 0 01.52-.19 3.85 3.85 0 01-1.75-1.25 3.94 3.94 0 01-1.79 1.26c-.2.1-.7.26-1.08.43a3.47 3.47 0 00-1.27.87l-.07.09-.06-.09a3.36 3.36 0 00-1.21-.86l-.56.26c.33.16.55.3.55.5s-.27.45-.8.45-.8-.15-.8-.45.29-.38.78-.59l.62-.28c.16-.07.45-.23.45-.23a3.54 3.54 0 001-.77l.07-.08.07.08a3.54 3.54 0 001 .77l.25.12.57-.21c-1-.36-1.49-.79-1.49-1.22a.33.33 0 01.34-.35 1.1 1.1 0 01.53.27 1.68 1.68 0 001 .44c.28 0 .3 0 .3-.31a2.12 2.12 0 00-.17-.71v-.06a2.08 2.08 0 00.6-1.36c0-.37 0-.37-.29-.37a1 1 0 00-.69.3.69.69 0 01-.5.27.36.36 0 01-.39-.37.84.84 0 01.26-.52.73.73 0 00.23-.43c0-.08 0-.09-.15-.09a1.39 1.39 0 00-.35 0h-.16v-.16a2.24 2.24 0 00.18-.75h-.12a1 1 0 00-.3.08h-.09v-.1a1 1 0 00-.54-.61 1 1 0 00-.54.61v.1h-.09a1 1 0 00-.3-.08h-.12a2.24 2.24 0 00.18.75v.16h-.16a1.39 1.39 0 00-.35 0c-.15 0-.15 0-.15.09a.73.73 0 00.23.43.84.84 0 01.26.52.36.36 0 01-.39.37.69.69 0 01-.5-.27 1 1 0 00-.69-.3c-.29 0-.29 0-.29.37a2.08 2.08 0 00.6 1.36v.06a2.12 2.12 0 00-.17.71c0 .29 0 .31.3.31a1.68 1.68 0 00.95-.44 1.1 1.1 0 01.53-.27.33.33 0 01.34.35c0 .44-.55.88-1.57 1.25l-1 .34a3.52 3.52 0 00-1.22.76l-.07.08-.06-.08a3 3 0 00-1.17-.74c-.16.08-.33.16-.64.29.36.17.58.3.58.51s-.25.45-.8.45-.79-.14-.79-.45.3-.4.74-.59l.68-.3.43-.24a4.35 4.35 0 001-.74l.06-.06.07.06a4.85 4.85 0 001 .74l.21.11.52-.19a3.76 3.76 0 01-1.76-1.25 3.92 3.92 0 01-1.77 1.26c-.09 0-.67.23-1.1.41a3.25 3.25 0 00-1.27.84l-.06.09-.07-.08a3.4 3.4 0 00-1.47-.88l-.57.26c.34.16.55.3.55.5s-.14.45-.8.45-.79-.25-.79-.45.29-.38.78-.59l.64-.29a4.38 4.38 0 00.43-.22 3.54 3.54 0 001-.77l.07-.08.07.08a3.54 3.54 0 001 .77l.21.11.58-.22c-.95-.35-1.47-.77-1.47-1.2a.34.34 0 01.35-.35 1.1 1.1 0 01.53.27 1.68 1.68 0 00.94.44c.28 0 .3 0 .3-.31a1.9 1.9 0 00-.17-.71v-.06a2.13 2.13 0 00.6-1.36c0-.37 0-.37-.29-.37a1 1 0 00-.69.3.69.69 0 01-.51.27.36.36 0 01-.38-.37.84.84 0 01.26-.52.73.73 0 00.23-.43c0-.08 0-.09-.15-.09a1.39 1.39 0 00-.35 0h-.17l.06-.16a2.24 2.24 0 00.18-.75h-.12a1 1 0 00-.3.08h-.09v-.1a1 1 0 00-.54-.61 1 1 0 00-.54.61v.1h-.1a.91.91 0 00-.29-.08h-.12c-.01 0 .12.59.18.75l.05.16h-.16a1.47 1.47 0 00-.36 0c-.15 0-.15 0-.15.09a.8.8 0 00.23.43.85.85 0 01.27.52.36.36 0 01-.39.37.67.67 0 01-.5-.27 1 1 0 00-.69-.3c-.29 0-.29 0-.29.37a2.12 2.12 0 00.47 1.32h.05v.06a2.12 2.12 0 00-.17.71c0 .29 0 .31.3.31a1.68 1.68 0 00.95-.44 1.06 1.06 0 01.53-.27.34.34 0 01.34.35c0 .46-.61.93-1.73 1.3 0 0-.5.17-.79.29a3.22 3.22 0 00-1.23.78l-.07.08-.07-.09a3 3 0 00-1.17-.74l-.64.29c.36.16.57.3.57.5s-.31.45-.87.45-.78-.15-.78-.45.3-.4.72-.59l.7-.31c.21-.1.43-.23.43-.23a4.35 4.35 0 001-.74l.06-.06.06.06a4.63 4.63 0 001 .74l.2.11.52-.19a3.85 3.85 0 01-1.75-1.25 3.94 3.94 0 01-1.78 1.26c-.27.11-.56.19-1.11.42a3.14 3.14 0 00-1.25.84l-.07.09-.07-.09a3.57 3.57 0 00-1.2-.82l-.56.26c.33.16.54.3.54.5s-.25.45-.79.45-.79-.14-.79-.45.29-.38.77-.59l.62-.27.46-.24a3.54 3.54 0 001-.77l.07-.08.07.08a3.54 3.54 0 001 .77l.22.12c.25-.11.44-.17.58-.22-1-.36-1.47-.78-1.47-1.21a.33.33 0 01.34-.35 1.1 1.1 0 01.53.27 1.68 1.68 0 00.95.44c.28 0 .3 0 .3-.31a2 2 0 00-.18-.71v-.06a2.13 2.13 0 00.6-1.36c0-.37 0-.37-.29-.37a1 1 0 00-.69.3.69.69 0 01-.5.27.36.36 0 01-.39-.37.84.84 0 01.26-.52.73.73 0 00.23-.43c0-.08 0-.09-.15-.09a1.39 1.39 0 00-.35 0h-.16v-.16a2.24 2.24 0 00.18-.75h-.12a1 1 0 00-.3.08h-.09v-.1a1 1 0 00-.54-.61 1 1 0 00-.54.61v.1h-.09A1 1 0 0021 26h-.12a2.24 2.24 0 00.18.75v.16h-.16a1.39 1.39 0 00-.35 0c-.15 0-.15 0-.15.09a.73.73 0 00.23.43.84.84 0 01.26.52.36.36 0 01-.39.37.69.69 0 01-.5-.32 1 1 0 00-.69-.3c-.29 0-.29 0-.29.37a2.08 2.08 0 00.6 1.36v.06a2.12 2.12 0 00-.17.71c0 .29 0 .31.3.31a1.68 1.68 0 00.95-.44 1.06 1.06 0 01.53-.27.33.33 0 01.34.35c0 .44-.55.88-1.57 1.24l-.81.29-.15.06a3.32 3.32 0 00-1.21.76l-.06.08-.07-.08a3 3 0 00-1.19-.74l-.6.27c.36.18.57.34.57.53s-.26.45-.83.45-.79-.23-.79-.45.31-.43.78-.63l.65-.27.43-.23a3.81 3.81 0 001-.74l.06-.07.07.07a4.34 4.34 0 001 .74l.23.12.51-.2a4 4 0 01-1.76-1.25 4 4 0 01-1.87 1.3s-.55.19-1 .35c-.59.26-.83.53-.83.94a.81.81 0 00.83.83h30.7a.81.81 0 00.83-.83c0-.4-.22-.67-.79-.93l-.56.26c.37.16.59.3.59.54s-.25.44-.73.44-.83-.15-.83-.45.28-.4.76-.62l.71-.33.49-.23c.81-.42 1-.79 1-1.82s.92-3.57 1-3.79a.88.88 0 00-.59.45" fill="#f3d240"/>
 <path d="M17.29 29.62a.46.46 0 10.46-.46.47.47 0 00-.46.46m8.39 0a.45.45 0 10.45-.46.46.46 0 00-.45.46m8.32 0a.45.45 0 10.45-.46.46.46 0 00-.45.46m8.4 0a.45.45 0 10.45-.46.46.46 0 00-.45.46" fill="#004996"/>
 <path d="M9.77 11.69V1.19H8.49v4.56H2.46V1.19H1.18v10.5h1.28V6.7h6.03v4.99h1.28zm10.35 0v-.94h-5.63V6.68h5.11v-.93h-5.11V2.13h5.42v-.94h-6.7v10.5h6.91zM29 9c0-1.95-1.5-2.53-3.15-3s-2.28-1.16-2.28-2.12c0-1.4 1.21-1.85 2.35-1.85a3 3 0 012.29.89l.53-1A4.09 4.09 0 0026 1c-1.9 0-3.7 1-3.7 2.88s1.15 2.36 2.7 2.85c1.87.6 2.7 1.07 2.7 2.32 0 1.41-1.25 1.88-2.36 1.88a3.51 3.51 0 01-2.63-1.16l-.55 1a4.54 4.54 0 003.17 1.12C27.24 11.88 29 11 29 9m8.29 0c0-1.95-1.51-2.53-3.15-3s-2.29-1.16-2.29-2.12c0-1.4 1.21-1.85 2.36-1.85a3 3 0 012.28.89l.54-1A4.11 4.11 0 0034.21 1C32.3 1 30.5 2 30.5 3.88s1.19 2.36 2.7 2.85c1.87.6 2.7 1.07 2.7 2.32 0 1.41-1.24 1.88-2.35 1.88a3.5 3.5 0 01-2.63-1.16l-.56 1a4.56 4.56 0 003.17 1.12c2 0 3.76-.88 3.76-2.93m9.79 2.73v-.94h-5.63V6.68h5.11v-.93h-5.11V2.13h5.42v-.94h-6.7v10.5h6.91zm11.39 0V1.19h-1.25v9.11l-5.61-9.11h-1.7v10.5h1.25V2.57l5.61 9.12h1.7zM76.74 18h1.93v4.38h5.06V18h1.93v10.86h-1.93v-4.8h-5.06v4.8h-1.93zM95 25.28v.25a1.94 1.94 0 010 .24h-5.63a1.93 1.93 0 00.2.73 2 2 0 00.47.57 2.35 2.35 0 00.66.37 2.18 2.18 0 00.76.14 2.59 2.59 0 001.17-.25 2.27 2.27 0 00.78-.7l1.22 1a3.67 3.67 0 01-3.15 1.47 4.48 4.48 0 01-1.58-.27 3.78 3.78 0 01-1.25-.76 3.33 3.33 0 01-.82-1.2 4.09 4.09 0 01-.3-1.61 4.25 4.25 0 01.3-1.62 3.78 3.78 0 01.82-1.24 3.57 3.57 0 011.23-.79 4.1 4.1 0 011.54-.29 3.8 3.8 0 011.41.26 3.11 3.11 0 011.13.75 3.53 3.53 0 01.74 1.24 5 5 0 01.3 1.71zm-1.84-.82a2.2 2.2 0 00-.1-.68 1.61 1.61 0 00-.31-.56 1.45 1.45 0 00-.55-.39 1.82 1.82 0 00-.77-.15 2.07 2.07 0 00-1.4.5 1.82 1.82 0 00-.63 1.28zm7.61-.98a2.13 2.13 0 00-.68-.56 1.84 1.84 0 00-.93-.24 1.67 1.67 0 00-.81.19.66.66 0 000 1.21 6.82 6.82 0 001.18.36 5.35 5.35 0 01.84.25 2.9 2.9 0 01.76.4 2 2 0 01.56.63 1.83 1.83 0 01.22.91 2.34 2.34 0 01-.26 1.14 2.23 2.23 0 01-.67.76 3 3 0 01-1 .42 4.91 4.91 0 01-1.16.13 4.54 4.54 0 01-1.66-.32 3.43 3.43 0 01-1.35-.89l1.21-1.13a2.58 2.58 0 00.79.66 2.34 2.34 0 001.09.26 2 2 0 00.41-.05 1.37 1.37 0 00.38-.15.7.7 0 00.28-.26.79.79 0 00.11-.42.67.67 0 00-.42-.65 6.06 6.06 0 00-1.26-.4 5.41 5.41 0 01-.81-.24 2.55 2.55 0 01-.69-.38 1.74 1.74 0 01-.49-.59 1.8 1.8 0 01-.19-.87 2.12 2.12 0 01.92-1.79 3 3 0 01.93-.42 4.32 4.32 0 011.08-.14 4.61 4.61 0 011.55.28 2.62 2.62 0 011.2.84zm6.79 0a2.09 2.09 0 00-.67-.56 1.91 1.91 0 00-.94-.24 1.73 1.73 0 00-.81.19.63.63 0 00-.36.61.61.61 0 00.4.6 7 7 0 001.19.36 5.57 5.57 0 01.83.25 3 3 0 01.77.4 2.12 2.12 0 01.56.63 1.83 1.83 0 01.21.91 2.34 2.34 0 01-.25 1.14 2.26 2.26 0 01-.68.76 2.91 2.91 0 01-1 .42 4.83 4.83 0 01-1.15.13 4.59 4.59 0 01-1.67-.32 3.43 3.43 0 01-1.35-.89l1.21-1.13a2.62 2.62 0 00.8.66 2.34 2.34 0 001.09.26 1.9 1.9 0 00.4-.05 1.16 1.16 0 00.38-.15.73.73 0 00.29-.26.79.79 0 00.1-.42.67.67 0 00-.42-.65 6.06 6.06 0 00-1.26-.4 5.65 5.65 0 01-.8-.24 2.61 2.61 0 01-.7-.38 1.86 1.86 0 01-.49-.59 1.93 1.93 0 01-.18-.87 2.1 2.1 0 01.25-1.06 2.13 2.13 0 01.67-.73 2.82 2.82 0 01.93-.42 4.24 4.24 0 011.09-.14 4.57 4.57 0 011.55.28 2.6 2.6 0 011.21.84zM110.1 19a1.06 1.06 0 01.33-.77 1.13 1.13 0 01.83-.33 1.21 1.21 0 01.85.32 1.06 1.06 0 010 1.57 1.21 1.21 0 01-.85.32 1.13 1.13 0 01-.83-.33 1.07 1.07 0 01-.33-.78zm.26 2.5h1.84v7.34h-1.84zm8.1 1.98a2.13 2.13 0 00-.68-.56 1.84 1.84 0 00-.93-.24 1.67 1.67 0 00-.81.19.66.66 0 000 1.21 6.82 6.82 0 001.18.36 5.35 5.35 0 01.84.25 2.9 2.9 0 01.76.4 2 2 0 01.56.63 1.83 1.83 0 01.22.91 2.34 2.34 0 01-.26 1.14 2.13 2.13 0 01-.67.76 3 3 0 01-1 .42 4.89 4.89 0 01-1.15.13 4.55 4.55 0 01-1.67-.32 3.43 3.43 0 01-1.35-.89l1.21-1.13a2.51 2.51 0 00.8.66 2.27 2.27 0 001.08.26 2 2 0 00.41-.05 1.26 1.26 0 00.38-.15.7.7 0 00.28-.26.79.79 0 00.11-.42.67.67 0 00-.42-.65 6.06 6.06 0 00-1.26-.4 5.41 5.41 0 01-.81-.24 2.55 2.55 0 01-.69-.38 1.74 1.74 0 01-.49-.59 1.93 1.93 0 01-.19-.87 2.12 2.12 0 01.92-1.79 3 3 0 01.94-.42 4.18 4.18 0 011.07-.14 4.61 4.61 0 011.55.28 2.52 2.52 0 011.2.84zm7.79.07a1.72 1.72 0 00-.65-.51 1.92 1.92 0 00-.87-.21 1.86 1.86 0 00-.89.21 2.06 2.06 0 00-.63.54 2.58 2.58 0 00-.38.76 3.12 3.12 0 00-.12.85 3.07 3.07 0 00.13.85 2.6 2.6 0 00.39.76 2.13 2.13 0 00.65.54 1.91 1.91 0 00.91.21 2.39 2.39 0 00.86-.17 1.61 1.61 0 00.69-.49l1.15 1.16a3.08 3.08 0 01-1.17.76 4.34 4.34 0 01-1.54.27 4.61 4.61 0 01-1.54-.26 3.64 3.64 0 01-2.13-2 4.07 4.07 0 01-.31-1.64 4 4 0 01.31-1.61 3.77 3.77 0 01.85-1.22 3.67 3.67 0 011.25-.78 4.2 4.2 0 013.09 0 2.91 2.91 0 011.2.84zm6.53-2.25a2.72 2.72 0 011.23.26 2.46 2.46 0 01.85.66 2.84 2.84 0 01.48 1 4.11 4.11 0 01.15 1.1v4.59h-1.84v-4a5.07 5.07 0 000-.66 2.1 2.1 0 00-.19-.63 1.35 1.35 0 00-.42-.47 1.24 1.24 0 00-.71-.18 1.64 1.64 0 00-.76.17 1.48 1.48 0 00-.54.45 2 2 0 00-.32.64 2.45 2.45 0 00-.11.71v4h-1.83V17.29h1.83v5.25a1.79 1.79 0 01.32-.45 2.37 2.37 0 01.48-.4 2.66 2.66 0 011.39-.39zm11.86 3.98v.25a1.93 1.93 0 010 .24H139a1.77 1.77 0 00.21.73 1.81 1.81 0 00.46.57 2.67 2.67 0 00.66.37 2.23 2.23 0 00.77.14 2.55 2.55 0 001.16-.25 2.1 2.1 0 00.78-.7l1.23 1a3.7 3.7 0 01-3.16 1.47 4.42 4.42 0 01-1.57-.27 3.68 3.68 0 01-1.25-.76 3.35 3.35 0 01-.83-1.2 4.09 4.09 0 01-.3-1.61 4.25 4.25 0 01.3-1.62 3.57 3.57 0 012.05-2 4.14 4.14 0 011.54-.29 3.9 3.9 0 011.42.26 3.07 3.07 0 011.12.75 3.26 3.26 0 01.74 1.24 5 5 0 01.31 1.68zm-1.83-.82a2.54 2.54 0 00-.1-.68 1.49 1.49 0 00-.32-.56 1.34 1.34 0 00-.54-.39 1.86 1.86 0 00-.77-.15 2.07 2.07 0 00-1.4.5 1.79 1.79 0 00-.64 1.28zm13.05-4.17a2.37 2.37 0 00-.86-.66 2.6 2.6 0 00-1.13-.27 2.57 2.57 0 00-.67.09 1.76 1.76 0 00-.61.26 1.41 1.41 0 00-.46.45 1.36 1.36 0 00-.17.69 1.21 1.21 0 00.15.62 1.38 1.38 0 00.42.45 3 3 0 00.65.32l.84.27c.35.12.71.24 1.08.39a4.27 4.27 0 011 .56 2.86 2.86 0 01.76.89 2.7 2.7 0 01.3 1.33 3.44 3.44 0 01-.32 1.52 3 3 0 01-.86 1.08 3.62 3.62 0 01-1.25.65 5.42 5.42 0 01-1.52.21 5.66 5.66 0 01-2.06-.39 4 4 0 01-1.66-1.16l1.38-1.28a2.71 2.71 0 001.07.87 2.9 2.9 0 001.3.32 3.25 3.25 0 00.69-.08 2 2 0 00.64-.28 1.69 1.69 0 00.46-.5 1.53 1.53 0 00.17-.74 1.18 1.18 0 00-.2-.72 1.93 1.93 0 00-.53-.49 5 5 0 00-.8-.36c-.3-.1-.63-.2-1-.32a9.68 9.68 0 01-1-.36 3.5 3.5 0 01-.88-.57 2.73 2.73 0 01-.64-.87 3 3 0 01-.24-1.27 2.83 2.83 0 01.34-1.43 3 3 0 01.91-1 3.79 3.79 0 011.27-.58 5.38 5.38 0 011.44-.2 5.3 5.3 0 011.68.29 4.12 4.12 0 011.47.88zm2.02 2.71v-1.48h1.29v-2.13H161v2.13h1.84V23H161v3.4a1.62 1.62 0 00.18.81c.11.22.38.32.79.32a1.84 1.84 0 00.39 0 1.48 1.48 0 00.39-.11l.06 1.44a2.9 2.9 0 01-.58.14 3.74 3.74 0 01-.65.06 2.88 2.88 0 01-1.19-.21 1.83 1.83 0 01-.73-.57 1.91 1.91 0 01-.36-.82 4.58 4.58 0 01-.1-1V23zm10.82 4.93a2 2 0 01-.88.8 3 3 0 01-1.4.32 3.81 3.81 0 01-.92-.12 2.61 2.61 0 01-.89-.38 2.24 2.24 0 01-.67-.7 2 2 0 01-.27-1.08 1.81 1.81 0 01.47-1.32 3.15 3.15 0 011.2-.75 6.62 6.62 0 011.63-.34 17.39 17.39 0 011.75-.09v-.18a1.14 1.14 0 00-.5-1 2.09 2.09 0 00-1.18-.33 2.58 2.58 0 00-1.12.25 3.07 3.07 0 00-.89.59L164 22.47a4 4 0 011.45-.87 4.77 4.77 0 011.66-.3 4.12 4.12 0 011.61.28 2.57 2.57 0 011 .72 2.75 2.75 0 01.51 1 4.22 4.22 0 01.14 1.11v4.46h-1.67zm0-2.42h-1.35a4.11 4.11 0 00-.9.17 1.89 1.89 0 00-.69.37.82.82 0 00-.27.65.73.73 0 00.11.43.92.92 0 00.3.29 1.34 1.34 0 00.41.15 2.4 2.4 0 00.46.05 1.92 1.92 0 001.44-.51 1.89 1.89 0 00.49-1.38zm8.42 2.42h-.05a2 2 0 01-.89.8 3 3 0 01-1.39.32 3.89 3.89 0 01-.93-.12 2.56 2.56 0 01-.88-.38 2.27 2.27 0 01-.68-.7 2.11 2.11 0 01-.26-1.08 1.85 1.85 0 01.46-1.32 3.15 3.15 0 011.2-.75 6.72 6.72 0 011.63-.34 17.59 17.59 0 011.76-.09v-.18a1.14 1.14 0 00-.5-1 2.1 2.1 0 00-1.19-.33 2.5 2.5 0 00-1.11.25 2.94 2.94 0 00-.89.59l-1-1.11a4 4 0 011.45-.87 4.73 4.73 0 011.66-.3 4.12 4.12 0 011.61.28 2.53 2.53 0 011 .72 2.62 2.62 0 01.52 1 4.69 4.69 0 01.14 1.11v4.46h-1.71zm0-2.42h-1.35a4 4 0 00-.9.17 1.89 1.89 0 00-.69.37.79.79 0 00-.28.65.73.73 0 00.12.43.76.76 0 00.3.29 1.34 1.34 0 00.41.15 2.31 2.31 0 00.46.05 1.92 1.92 0 001.44-.51 1.94 1.94 0 00.49-1.38zm2.66-2.51v-1.48h1.28v-2.13h1.81v2.13h1.84V23h-1.84v3.4a1.62 1.62 0 00.18.81c.11.22.38.32.78.32a1.87 1.87 0 00.4 0 1.48 1.48 0 00.39-.11l.06 1.44a2.84 2.84 0 01-.59.14 3.55 3.55 0 01-.64.06 2.85 2.85 0 01-1.19-.21 1.83 1.83 0 01-.73-.57 2 2 0 01-.37-.82 5.3 5.3 0 01-.1-1V23zm10.28.48a2 2 0 00-.67-.56 1.9 1.9 0 00-.93-.24 1.67 1.67 0 00-.81.19.62.62 0 00-.37.61.61.61 0 00.4.6 7 7 0 001.19.36 5.57 5.57 0 01.83.25 3 3 0 01.77.4 2.12 2.12 0 01.56.63 1.83 1.83 0 01.21.91 2.34 2.34 0 01-.25 1.14 2.23 2.23 0 01-.67.76 3 3 0 01-1 .42 5 5 0 01-1.16.13 4.59 4.59 0 01-1.67-.32 3.32 3.32 0 01-1.34-.89l1.2-1.13a2.62 2.62 0 00.8.66 2.34 2.34 0 001.09.26 1.83 1.83 0 00.4-.05 1.32 1.32 0 00.39-.15.77.77 0 00.28-.26.79.79 0 00.11-.42.67.67 0 00-.43-.65 6.06 6.06 0 00-1.26-.4 5.65 5.65 0 01-.8-.24 2.77 2.77 0 01-.7-.38 2 2 0 01-.49-.59 1.93 1.93 0 01-.18-.87 2.1 2.1 0 01.25-1.06 2.13 2.13 0 01.67-.73 2.82 2.82 0 01.93-.42 4.3 4.3 0 011.07-.14 4.67 4.67 0 011.56.28 2.62 2.62 0 011.2.84zm2.8-6.19h1.84v7.32h.05l2.78-3.09h2.36l-3.19 3.32 3.39 4h-2.44l-2.9-3.76h-.05v3.76h-1.84zm12.75 10.64a2 2 0 01-.89.8 3 3 0 01-1.39.32 3.83 3.83 0 01-.93-.12 2.61 2.61 0 01-.89-.38 2.24 2.24 0 01-.67-.7 2 2 0 01-.27-1.08 1.85 1.85 0 01.47-1.32 3.15 3.15 0 011.2-.75 6.62 6.62 0 011.63-.34c.6-.06 1.18-.09 1.75-.09v-.18a1.12 1.12 0 00-.5-1 2.07 2.07 0 00-1.18-.33 2.58 2.58 0 00-1.12.25 3.07 3.07 0 00-.89.59l-.95-1.11a4 4 0 011.45-.87 4.81 4.81 0 011.66-.3 4.2 4.2 0 011.62.28 2.61 2.61 0 011 .72 2.75 2.75 0 01.51 1 4.24 4.24 0 01.15 1.11v4.46h-1.72zm0-2.42h-1.35a4.22 4.22 0 00-.9.17 2.07 2.07 0 00-.69.37.82.82 0 00-.27.65.81.81 0 00.11.43.92.92 0 00.3.29 1.34 1.34 0 00.41.15 2.49 2.49 0 00.46.05 1.74 1.74 0 001.93-1.89zm3.86-3.99h1.74v1.18a2.42 2.42 0 01.85-1 2.4 2.4 0 011.43-.43 2.8 2.8 0 011.24.26 2.52 2.52 0 01.84.66 2.66 2.66 0 01.48 1 4.11 4.11 0 01.15 1.1v4.59h-1.8v-4.09a5.43 5.43 0 00-.05-.67 1.79 1.79 0 00-.2-.63 1.19 1.19 0 00-1.13-.66 1.57 1.57 0 00-.77.18 1.63 1.63 0 00-.52.45 2 2 0 00-.32.64 2.57 2.57 0 00-.11.72v4h-1.83zm8.32 5.72l4-4.25H218v-1.47h6v1.62l-4 4.22h4.16v1.5h-6.34zm7.99-9.95h1.84v11.57h-1.84zm11.08 7.99v.25a1.93 1.93 0 010 .24h-5.59a1.77 1.77 0 00.21.73 1.81 1.81 0 00.46.57 2.67 2.67 0 00.66.37 2.23 2.23 0 00.77.14 2.55 2.55 0 001.16-.25 2.1 2.1 0 00.78-.7l1.22 1a3.67 3.67 0 01-3.15 1.47 4.38 4.38 0 01-1.57-.27 3.68 3.68 0 01-1.25-.76 3.35 3.35 0 01-.83-1.2 4.09 4.09 0 01-.3-1.61 4.25 4.25 0 01.3-1.62 3.57 3.57 0 012.05-2 4.14 4.14 0 011.54-.29 3.9 3.9 0 011.42.26 3.16 3.16 0 011.12.75 3.39 3.39 0 01.74 1.24 5 5 0 01.26 1.68zm-1.86-.82a2.2 2.2 0 00-.1-.68 1.47 1.47 0 00-.31-.56 1.34 1.34 0 00-.54-.39 1.86 1.86 0 00-.77-.15 2.05 2.05 0 00-1.4.5 1.79 1.79 0 00-.64 1.28zm3.41-5.46a1.06 1.06 0 01.33-.77 1.1 1.1 0 01.83-.33 1.21 1.21 0 01.85.32 1.08 1.08 0 010 1.57 1.21 1.21 0 01-.85.32 1.1 1.1 0 01-.83-.33 1.07 1.07 0 01-.33-.78zm.26 2.5h1.83v7.34h-1.83zM76.74 45.71h1.93v4.38h5.06v-4.38h1.93v10.84h-1.93v-4.81h-5.06v4.81h-1.93zM95 53v.24a2.11 2.11 0 010 .25h-5.63a1.88 1.88 0 00.2.72 2 2 0 00.47.57 2.37 2.37 0 00.66.38 2.17 2.17 0 00.76.13 2.47 2.47 0 001.17-.29 2.27 2.27 0 00.78-.7l1.22 1a3.67 3.67 0 01-3.15 1.47 4.72 4.72 0 01-1.58-.26 4 4 0 01-1.25-.76 3.51 3.51 0 01-.82-1.2 4.5 4.5 0 010-3.23 3.63 3.63 0 012-2 4.09 4.09 0 011.59-.32 3.8 3.8 0 011.41.25A3.11 3.11 0 0194 50a3.62 3.62 0 01.74 1.24A5.09 5.09 0 0195 53zm-1.84-.83a2.13 2.13 0 00-.1-.67 1.66 1.66 0 00-.31-.57 1.71 1.71 0 00-.55-.39 1.83 1.83 0 00-.77-.14 2.06 2.06 0 00-1.4.49 1.84 1.84 0 00-.63 1.28zm7.61-1.01a2.27 2.27 0 00-.68-.56 1.94 1.94 0 00-.93-.23 1.79 1.79 0 00-.81.18.67.67 0 000 1.22 9.23 9.23 0 001.18.36 6.62 6.62 0 01.84.24 2.93 2.93 0 01.76.41 2 2 0 01.56.62 1.86 1.86 0 01.22.91 2.34 2.34 0 01-.26 1.14 2.06 2.06 0 01-.67.76 2.63 2.63 0 01-1 .42 4.91 4.91 0 01-1.16.13 4.52 4.52 0 01-1.66-.31 3.56 3.56 0 01-1.35-.9l1.21-1.13a2.35 2.35 0 001.88.92 2 2 0 00.41-.05 1.34 1.34 0 00.38-.14.81.81 0 00.28-.27.76.76 0 00.11-.41.68.68 0 00-.42-.66 6.73 6.73 0 00-1.26-.4 5.41 5.41 0 01-.81-.24 2.31 2.31 0 01-.69-.38 1.65 1.65 0 01-.49-.59 1.75 1.75 0 01-.19-.87 2.11 2.11 0 01.26-1.06 2.17 2.17 0 01.66-.72 3 3 0 01.93-.42 4.32 4.32 0 011.14-.13 4.6 4.6 0 011.55.27 2.71 2.71 0 011.2.85zm6.79 0a2.22 2.22 0 00-.67-.56 2 2 0 00-.94-.23 1.85 1.85 0 00-.81.18.63.63 0 00-.36.61.62.62 0 00.4.61 9.48 9.48 0 001.19.36 7 7 0 01.83.24 3 3 0 01.77.41 2.08 2.08 0 01.56.62 1.85 1.85 0 01.21.91 2.34 2.34 0 01-.25 1.14 2.09 2.09 0 01-.68.76 2.56 2.56 0 01-1 .42 4.83 4.83 0 01-1.15.13 4.58 4.58 0 01-1.67-.31 3.56 3.56 0 01-1.35-.9l1.21-1.13a2.36 2.36 0 00.8.66 2.34 2.34 0 001.09.26 1.9 1.9 0 00.4-.05 1.15 1.15 0 00.38-.14.84.84 0 00.29-.27.76.76 0 00.1-.41.68.68 0 00-.42-.66 6.73 6.73 0 00-1.26-.4 5.65 5.65 0 01-.8-.24 2.36 2.36 0 01-.7-.38 1.76 1.76 0 01-.49-.59 1.87 1.87 0 01-.18-.87 2.1 2.1 0 01.25-1.06 2.2 2.2 0 01.67-.72 2.82 2.82 0 01.93-.42A4.24 4.24 0 01106 49a4.56 4.56 0 011.55.27 2.69 2.69 0 011.21.85zm2.54-4.45a1 1 0 01.33-.77 1.13 1.13 0 01.83-.33 1.2 1.2 0 01.85.31 1 1 0 01.35.79 1 1 0 01-.35.79 1.2 1.2 0 01-.85.31 1.13 1.13 0 01-.83-.33 1.06 1.06 0 01-.33-.77zm.26 2.49h1.84v7.35h-1.84zm8.1 1.96a2.27 2.27 0 00-.68-.56 1.94 1.94 0 00-.93-.23 1.79 1.79 0 00-.81.18.67.67 0 000 1.22 9.23 9.23 0 001.18.36 6.62 6.62 0 01.84.24 2.93 2.93 0 01.76.41 2 2 0 01.56.62 1.86 1.86 0 01.22.91 2.34 2.34 0 01-.26 1.14 2 2 0 01-.67.76 2.63 2.63 0 01-1 .42 4.89 4.89 0 01-1.15.13 4.54 4.54 0 01-1.67-.31 3.56 3.56 0 01-1.35-.9l1.21-1.13a2.39 2.39 0 001.88.92 2 2 0 00.41-.05 1.24 1.24 0 00.38-.14.81.81 0 00.28-.27.76.76 0 00.11-.41.68.68 0 00-.42-.66 6.73 6.73 0 00-1.26-.4 5.41 5.41 0 01-.81-.24 2.31 2.31 0 01-.69-.38 1.65 1.65 0 01-.49-.59 1.87 1.87 0 01-.19-.87 2.11 2.11 0 01.26-1.06 2.17 2.17 0 01.66-.72 3 3 0 01.94-.42 4.18 4.18 0 011.13-.13 4.6 4.6 0 011.55.27 2.6 2.6 0 011.2.85zm7.79.08a1.55 1.55 0 00-.65-.51 1.92 1.92 0 00-.87-.21 1.86 1.86 0 00-.89.21 1.93 1.93 0 00-.63.54 2.46 2.46 0 00-.38.76 3.06 3.06 0 00-.12.85 3.13 3.13 0 00.13.85 2.43 2.43 0 00.39.75 1.85 1.85 0 001.56.75 2.2 2.2 0 00.86-.17 1.53 1.53 0 00.69-.49l1.15 1.17a3.21 3.21 0 01-1.17.76 4.57 4.57 0 01-1.54.26 4.37 4.37 0 01-1.54-.26 3.56 3.56 0 01-2.13-2 4 4 0 01-.31-1.63 4 4 0 01.31-1.61 3.57 3.57 0 01.85-1.22 3.85 3.85 0 011.25-.79 4.23 4.23 0 011.52-.27 4 4 0 011.57.31 2.82 2.82 0 011.2.84zm6.53-2.24a2.73 2.73 0 011.23.25 2.37 2.37 0 01.85.67 2.75 2.75 0 01.48 1 4 4 0 01.15 1.1v4.59h-1.84v-4a5.12 5.12 0 000-.67 2 2 0 00-.19-.62 1.27 1.27 0 00-.42-.47 1.24 1.24 0 00-.71-.18 1.64 1.64 0 00-.76.16 1.61 1.61 0 00-.54.46 2 2 0 00-.32.63 2.51 2.51 0 00-.11.72v4h-1.83V45h1.83v5.25a1.63 1.63 0 01.32-.45 2.37 2.37 0 01.48-.4 2.27 2.27 0 01.63-.28 2.33 2.33 0 01.75-.12zm11.86 4v.24a2.09 2.09 0 010 .25H139a1.72 1.72 0 00.21.72 1.81 1.81 0 00.46.57 2.7 2.7 0 00.66.38 2.22 2.22 0 00.77.13 2.43 2.43 0 001.2-.29 2.1 2.1 0 00.78-.7l1.23 1a3.7 3.7 0 01-3.16 1.47 4.66 4.66 0 01-1.57-.26 3.85 3.85 0 01-1.25-.76 3.53 3.53 0 01-.83-1.2 4.5 4.5 0 010-3.23 3.58 3.58 0 01.82-1.24 3.79 3.79 0 011.23-.8 4.13 4.13 0 011.54-.28 3.89 3.89 0 011.42.25 3.07 3.07 0 011.12.75 3.33 3.33 0 01.74 1.24 5.09 5.09 0 01.27 1.76zm-1.83-.83a2.47 2.47 0 00-.1-.67 1.53 1.53 0 00-.32-.57 1.57 1.57 0 00-.54-.39 1.86 1.86 0 00-.77-.14 2.06 2.06 0 00-1.4.49 1.81 1.81 0 00-.64 1.28zm7.53-6.46h3l2.82 7.7 2.79-7.7h3v10.84h-1.92v-8.71l-3.29 8.71h-1.34l-3.25-8.71v8.71h-1.83zm13.75 1a1 1 0 01.33-.77 1.14 1.14 0 01.84-.33 1.22 1.22 0 01.85.31 1 1 0 01.34.79 1 1 0 01-.34.79 1.22 1.22 0 01-.85.31 1.14 1.14 0 01-.84-.33 1.06 1.06 0 01-.33-.77zm.26 2.49h1.84v7.35h-1.84zm4.07 0h1.75v1.18a2.35 2.35 0 01.85-1 2.44 2.44 0 011.43-.42 2.73 2.73 0 011.23.25 2.42 2.42 0 01.84.67 2.76 2.76 0 01.49 1 4 4 0 01.15 1.1v4.59h-1.84v-4.09a5.38 5.38 0 000-.68 1.86 1.86 0 00-.2-.63 1.45 1.45 0 00-.42-.47 1.28 1.28 0 00-.72-.18 1.58 1.58 0 00-1.29.63 1.86 1.86 0 00-.31.63 2.58 2.58 0 00-.11.73v4h-1.84zm8.68-2.49a1 1 0 01.33-.77 1.13 1.13 0 01.83-.33 1.2 1.2 0 01.85.31 1 1 0 01.35.79 1 1 0 01-.35.79 1.2 1.2 0 01-.85.31 1.13 1.13 0 01-.83-.33 1.06 1.06 0 01-.33-.77zm.26 2.49h1.84v7.35h-1.84zm8.1 1.96a2.27 2.27 0 00-.68-.56 1.94 1.94 0 00-.93-.23 1.79 1.79 0 00-.81.18.67.67 0 000 1.22 9.23 9.23 0 001.18.36 6.62 6.62 0 01.84.24 2.93 2.93 0 01.76.41 2 2 0 01.56.62 1.86 1.86 0 01.22.91 2.34 2.34 0 01-.26 1.14 2.06 2.06 0 01-.67.76 2.63 2.63 0 01-1 .42 4.91 4.91 0 01-1.16.13 4.52 4.52 0 01-1.66-.31 3.56 3.56 0 01-1.35-.9l1.21-1.13a2.35 2.35 0 001.88.92 2 2 0 00.41-.05 1.34 1.34 0 00.38-.14.81.81 0 00.28-.27.76.76 0 00.11-.41.68.68 0 00-.42-.66 6.73 6.73 0 00-1.26-.4 5.41 5.41 0 01-.81-.24 2.31 2.31 0 01-.69-.38 1.65 1.65 0 01-.49-.59 1.75 1.75 0 01-.19-.87 2.11 2.11 0 01.26-1.06 2.17 2.17 0 01.66-.72 3 3 0 01.93-.42 4.32 4.32 0 011.14-.13 4.6 4.6 0 011.55.27 2.71 2.71 0 011.2.85zm1.71-.49V49.2h1.29v-2.12h1.8v2.12h1.84v1.47h-1.84v3.42a1.67 1.67 0 00.18.81c.12.21.38.32.79.32a2.87 2.87 0 00.39 0 1.49 1.49 0 00.39-.12l.06 1.44a3.75 3.75 0 01-.58.15 5 5 0 01-.65.05 3.07 3.07 0 01-1.19-.2 1.83 1.83 0 01-.73-.57 2 2 0 01-.36-.83 4.52 4.52 0 01-.1-1v-3.47zM200.44 53v.24a2.11 2.11 0 010 .25h-5.58a1.88 1.88 0 00.2.72 2 2 0 00.47.57 2.53 2.53 0 00.66.38 2.17 2.17 0 00.76.13 2.47 2.47 0 001.15-.29 2.27 2.27 0 00.78-.7l1.22 1a3.67 3.67 0 01-3.1 1.46 4.72 4.72 0 01-1.58-.26 3.8 3.8 0 01-1.24-.76 3.4 3.4 0 01-.83-1.2 4.5 4.5 0 010-3.23 3.58 3.58 0 01.82-1.24 3.79 3.79 0 011.23-.8 4.13 4.13 0 011.54-.28 3.8 3.8 0 011.41.25 3.11 3.11 0 011.13.75 3.62 3.62 0 01.74 1.24 5.09 5.09 0 01.22 1.77zm-1.84-.83a2.13 2.13 0 00-.1-.67 1.51 1.51 0 00-.31-.57 1.57 1.57 0 00-.54-.39 1.87 1.87 0 00-.78-.14 2.08 2.08 0 00-1.4.49 1.84 1.84 0 00-.63 1.28zm3.61-2.97H204v1.23a2.66 2.66 0 01.86-1 2.13 2.13 0 011.29-.4h.23a.46.46 0 01.21 0v1.68l-.31-.06h-.26a2 2 0 00-1 .23 1.84 1.84 0 00-.59.55 2.11 2.11 0 00-.29.66 2.6 2.6 0 00-.08.54v3.93h-1.84zm5.34-2.49a1 1 0 01.33-.77 1.14 1.14 0 01.84-.33 1.22 1.22 0 01.85.31 1 1 0 01.34.79 1 1 0 01-.34.79 1.22 1.22 0 01-.85.31 1.14 1.14 0 01-.84-.33 1.06 1.06 0 01-.33-.77zm.27 2.49h1.83v7.35h-1.83zm4.07 0h1.74v1.18a2.35 2.35 0 01.85-1 2.44 2.44 0 011.43-.42 2.73 2.73 0 011.23.25 2.33 2.33 0 01.84.67 2.76 2.76 0 01.49 1 4 4 0 01.15 1.1v4.59h-1.84v-4.09a5.38 5.38 0 000-.68 1.86 1.86 0 00-.2-.63 1.35 1.35 0 00-.42-.47 1.27 1.27 0 00-.71-.18 1.57 1.57 0 00-.77.18 1.54 1.54 0 00-.53.45 2.06 2.06 0 00-.31.63 2.58 2.58 0 00-.11.73v4h-1.83zm13.02 1.47h-1.39V49.2h1.39v-1.08a5.88 5.88 0 01.14-1.27 3 3 0 01.49-1.06 2.43 2.43 0 01.91-.73 3.51 3.51 0 011.43-.26 3.86 3.86 0 01.51 0 2.07 2.07 0 01.42.08l-.12 1.56-.33-.07a2.25 2.25 0 00-.38 0 1.24 1.24 0 00-.64.15 1 1 0 00-.37.4 1.58 1.58 0 00-.18.53 3.82 3.82 0 000 .57v1.18h1.69v1.47h-1.69v5.88h-1.84zm11.37 5.88h-1.75v-1.18a2.32 2.32 0 01-.84 1 2.49 2.49 0 01-1.44.42 2.73 2.73 0 01-1.23-.25 2.52 2.52 0 01-.84-.66 2.75 2.75 0 01-.48-1 4.13 4.13 0 01-.15-1.11V49.2h1.83v4.07a5.45 5.45 0 00.05.68 1.66 1.66 0 00.2.63 1.27 1.27 0 00.42.47 1.24 1.24 0 00.71.18 1.7 1.7 0 00.76-.17 1.67 1.67 0 00.53-.45 2.26 2.26 0 00.32-.64 2.57 2.57 0 00.1-.73v-4h1.84zm-5.94-9.86a1.05 1.05 0 01.31-.75 1 1 0 01.78-.32 1.08 1.08 0 01.79.31 1 1 0 01.33.76 1 1 0 01-.33.77 1.11 1.11 0 01-.79.3 1 1 0 01-.78-.32 1 1 0 01-.31-.75zm3 0a1.05 1.05 0 01.31-.75 1 1 0 01.78-.32 1.08 1.08 0 01.79.31 1 1 0 01.33.76 1 1 0 01-.33.77 1.11 1.11 0 01-.79.3 1 1 0 01-.78-.32 1 1 0 01-.31-.75zm5.14 2.51h1.76v1.23a2.66 2.66 0 01.86-1 2.13 2.13 0 011.29-.4h.23a.46.46 0 01.21 0v1.68l-.31-.06h-.26a2 2 0 00-1 .23 1.84 1.84 0 00-.59.55 1.91 1.91 0 00-.29.66 2.6 2.6 0 00-.08.54v3.93h-1.84zM76.74 64.49h3.84a8.26 8.26 0 012.13.28 5.36 5.36 0 011.93.91A4.77 4.77 0 0186 67.35a5.45 5.45 0 01.54 2.56 5.21 5.21 0 01-.54 2.45A5.09 5.09 0 0184.64 74a5.85 5.85 0 01-1.93 1 7.54 7.54 0 01-2.13.32h-3.84zm3.54 9.15a6.39 6.39 0 001.5-.17 4 4 0 001.35-.6 3.25 3.25 0 001-1.14 3.93 3.93 0 00.38-1.82 4.17 4.17 0 00-.38-1.9 3.2 3.2 0 00-1-1.15 3.75 3.75 0 00-1.35-.56 7.65 7.65 0 00-1.5-.16h-1.61v7.5zm7.83-8.15a1.07 1.07 0 01.33-.78 1.13 1.13 0 01.83-.33 1.21 1.21 0 01.85.32 1 1 0 01.35.79 1 1 0 01-.35.78 1.21 1.21 0 01-.85.32 1.13 1.13 0 01-.83-.33 1.06 1.06 0 01-.33-.77zm.26 2.51h1.84v7.35h-1.84zm11.54 0v6.69a6 6 0 01-.25 1.8 3.46 3.46 0 01-.75 1.36 3.4 3.4 0 01-1.3.86 4.91 4.91 0 01-1.85.31 6.39 6.39 0 01-.94-.08 5.58 5.58 0 01-1-.23 5.74 5.74 0 01-.92-.38 4.24 4.24 0 01-.8-.52l1.06-1.42a3.84 3.84 0 001.21.77 3.58 3.58 0 001.36.27 3 3 0 001.11-.19 1.88 1.88 0 00.72-.53 2.37 2.37 0 00.38-.8 4.09 4.09 0 00.11-1v-.53a2.53 2.53 0 01-1 .82 3.32 3.32 0 01-1.39.29 3.5 3.5 0 01-1.5-.31 3.4 3.4 0 01-1.16-.86 4 4 0 01-.73-1.22 4.27 4.27 0 01-.27-1.48 4.38 4.38 0 01.26-1.5 3.51 3.51 0 011.85-2.05 3.57 3.57 0 011.49-.3 3.24 3.24 0 011.45.32 2.38 2.38 0 011.07 1V68zM96 69.27a2.11 2.11 0 00-.89.18 1.93 1.93 0 00-.66.5 2 2 0 00-.41.74 2.71 2.71 0 00-.15.91 2.41 2.41 0 00.15.85 2.14 2.14 0 00.41.74 2 2 0 00.66.53 1.93 1.93 0 00.88.2 2.09 2.09 0 00.91-.19 2.21 2.21 0 00.69-.51 2.48 2.48 0 00.43-.74 2.59 2.59 0 00.16-.88 2.7 2.7 0 00-.16-.9 2.53 2.53 0 00-.43-.75 2.1 2.1 0 00-.68-.5 2.21 2.21 0 00-.91-.18zm5.88-3.78a1.07 1.07 0 01.33-.78 1.14 1.14 0 01.84-.33 1.23 1.23 0 01.85.32 1 1 0 01.34.79 1 1 0 01-.34.78 1.23 1.23 0 01-.85.32 1.14 1.14 0 01-.84-.33 1.06 1.06 0 01-.33-.77zm.26 2.49H104v7.35h-1.84zm3.02 1.47V68h1.28v-2.15h1.81V68h1.84v1.47h-1.84v3.41a1.62 1.62 0 00.18.81c.11.22.38.33.78.33a2.85 2.85 0 00.4 0 2 2 0 00.39-.12l.06 1.44a3.61 3.61 0 01-.59.15 4.72 4.72 0 01-.64 0 2.85 2.85 0 01-1.19-.21 1.73 1.73 0 01-.73-.56 2.16 2.16 0 01-.37-.83 5.21 5.21 0 01-.1-1v-3.44zM116 74.39a2 2 0 01-.88.81 3 3 0 01-1.4.31 4.35 4.35 0 01-.92-.11 2.84 2.84 0 01-.89-.39 2 2 0 01-.67-.7 2 2 0 01-.27-1.08 1.85 1.85 0 01.46-1.32 3.27 3.27 0 011.21-.75 7.12 7.12 0 011.63-.34 17.34 17.34 0 011.75-.08v-.19a1.14 1.14 0 00-.5-1 2.1 2.1 0 00-1.19-.32 2.67 2.67 0 00-1.11.24 2.78 2.78 0 00-.89.6l-1-1.12a4 4 0 011.45-.87 4.76 4.76 0 011.66-.29A4.13 4.13 0 01116 68a2.66 2.66 0 011 .72 2.59 2.59 0 01.52 1 4.54 4.54 0 01.14 1.1v4.47H116zm0-2.39h-1.35a4.64 4.64 0 00-.9.17 1.89 1.89 0 00-.69.37.82.82 0 00-.28.65.78.78 0 00.12.44 1 1 0 00.3.28 1.34 1.34 0 00.41.15 2.4 2.4 0 00.46.05 1.92 1.92 0 001.44-.51 1.85 1.85 0 00.49-1.37zm3.87-8.24h1.83v11.57h-1.83zM131 71.75V72a2.29 2.29 0 010 .25h-5.59a1.77 1.77 0 00.21.72 1.84 1.84 0 00.47.57 2.13 2.13 0 00.66.37 2 2 0 00.76.14 2.4 2.4 0 001.16-.25 2.1 2.1 0 00.78-.7l1.23 1a3.69 3.69 0 01-3.15 1.47 4.44 4.44 0 01-1.58-.27 3.66 3.66 0 01-1.25-.75 3.46 3.46 0 01-.82-1.21 4.09 4.09 0 01-.3-1.61 4.16 4.16 0 01.3-1.61 3.58 3.58 0 01.82-1.24 3.45 3.45 0 011.23-.8 4.06 4.06 0 011.54-.28 3.8 3.8 0 011.41.25 3.19 3.19 0 011.13.75 3.53 3.53 0 01.74 1.24 5 5 0 01.25 1.71zm-1.84-.83a2.13 2.13 0 00-.1-.67 1.57 1.57 0 00-.31-.57 1.71 1.71 0 00-.55-.39 1.82 1.82 0 00-.77-.15 2.07 2.07 0 00-1.4.5 1.87 1.87 0 00-.64 1.28zm13-4.16a2.28 2.28 0 00-.86-.67 2.51 2.51 0 00-1.8-.18 1.85 1.85 0 00-.61.26 1.32 1.32 0 00-.45.46 1.23 1.23 0 00-.18.68 1.28 1.28 0 00.15.63 1.6 1.6 0 00.42.44 2.9 2.9 0 00.66.32l.84.28 1.08.38a4.21 4.21 0 011 .56 3 3 0 01.77.89 2.7 2.7 0 01.29 1.33 3.35 3.35 0 01-.32 1.53 3.24 3.24 0 01-.85 1.08 3.75 3.75 0 01-1.26.64 5.35 5.35 0 01-1.51.21 5.67 5.67 0 01-2.07-.39 4 4 0 01-1.65-1.15l1.37-1.29a2.71 2.71 0 001.07.87 2.9 2.9 0 001.31.32 2.82 2.82 0 00.69-.08 2 2 0 00.63-.28 1.69 1.69 0 00.46-.5 1.42 1.42 0 00.18-.74 1.22 1.22 0 00-.2-.71 1.71 1.71 0 00-.54-.49 3.62 3.62 0 00-.79-.36l-1-.32c-.33-.11-.65-.23-1-.37a3.17 3.17 0 01-.88-.57 2.63 2.63 0 01-.63-.86 2.86 2.86 0 01-.25-1.28 2.77 2.77 0 01.35-1.42 3.05 3.05 0 01.9-1 4.09 4.09 0 011.27-.58 5.45 5.45 0 011.45-.19 4.94 4.94 0 011.67.29 4 4 0 011.48.87zm2.02 2.69V68h1.29v-2.15h1.8V68h1.84v1.47h-1.84v3.41a1.62 1.62 0 00.18.81c.12.22.38.33.79.33a3.18 3.18 0 00.4 0 1.89 1.89 0 00.38-.12l.06 1.44a3.47 3.47 0 01-.58.15 5 5 0 01-.64 0 2.93 2.93 0 01-1.2-.21 1.69 1.69 0 01-.72-.56 2 2 0 01-.37-.83 4.52 4.52 0 01-.1-1v-3.44zm6.26-1.45h1.76v1.23a2.77 2.77 0 01.86-1 2.19 2.19 0 011.29-.39h.44v1.66l-.31-.06a1.18 1.18 0 00-.26 0 2 2 0 00-1 .23 1.84 1.84 0 00-.59.55 1.76 1.76 0 00-.29.66 2.06 2.06 0 00-.08.53v3.94h-1.84zm9.95 6.39a2 2 0 01-.88.81 3 3 0 01-1.4.31 4.35 4.35 0 01-.92-.11 2.84 2.84 0 01-.89-.39 2.14 2.14 0 01-.67-.7 2 2 0 01-.27-1.08 1.81 1.81 0 01.47-1.32 3.15 3.15 0 011.2-.75 7.12 7.12 0 011.63-.34 17.34 17.34 0 011.75-.08v-.19a1.14 1.14 0 00-.5-1 2.07 2.07 0 00-1.18-.32 2.72 2.72 0 00-1.12.24 2.9 2.9 0 00-.89.6l-.95-1.12a4 4 0 011.45-.87 4.76 4.76 0 011.66-.29 4.13 4.13 0 011.61.27 2.79 2.79 0 011 .72 2.71 2.71 0 01.51 1 4.1 4.1 0 01.14 1.1v4.47h-1.71zm0-2.41H160l-1 .02a5 5 0 00-.9.17 1.89 1.89 0 00-.69.37.82.82 0 00-.27.65.78.78 0 00.11.44 1 1 0 00.3.28 1.34 1.34 0 00.41.15 2.4 2.4 0 00.46.05 1.92 1.92 0 001.44-.51 1.85 1.85 0 00.49-1.37zm2.66-2.53V68h1.29v-2.15h1.8V68H168v1.47h-1.84v3.41a1.62 1.62 0 00.18.81c.12.22.38.33.79.33a3.18 3.18 0 00.4 0 1.89 1.89 0 00.38-.12l.06 1.44a3.47 3.47 0 01-.58.15 5 5 0 01-.64 0 2.93 2.93 0 01-1.2-.21 1.79 1.79 0 01-.73-.56 2.14 2.14 0 01-.36-.83 4.52 4.52 0 01-.1-1v-3.44zm13.27 2.3V72a2.18 2.18 0 010 .25h-5.59a1.77 1.77 0 00.21.72 1.81 1.81 0 00.46.57 2.38 2.38 0 00.66.37 2 2 0 00.77.14 2.43 2.43 0 001.16-.25 2.1 2.1 0 00.78-.7l1.22 1a3.67 3.67 0 01-3.15 1.47 4.38 4.38 0 01-1.57-.27 3.66 3.66 0 01-1.25-.75 3.48 3.48 0 01-.83-1.21 4.09 4.09 0 01-.3-1.61 4.16 4.16 0 01.3-1.61 3.58 3.58 0 01.82-1.24 3.63 3.63 0 011.23-.8 4.13 4.13 0 011.54-.28 3.89 3.89 0 011.42.25 3.16 3.16 0 011.12.75 3.39 3.39 0 01.74 1.24 5 5 0 01.26 1.71zm-1.84-.83a2.13 2.13 0 00-.1-.67 1.44 1.44 0 00-.31-.57 1.57 1.57 0 00-.54-.39 1.86 1.86 0 00-.77-.15 2.1 2.1 0 00-1.41.5 1.82 1.82 0 00-.63 1.28zM185.56 68v6.69a6.32 6.32 0 01-.24 1.8 3.48 3.48 0 01-.76 1.36 3.36 3.36 0 01-1.29.86 4.94 4.94 0 01-1.85.31 6.28 6.28 0 01-.94-.08 5.37 5.37 0 01-1-.23 5.85 5.85 0 01-.93-.38 4.59 4.59 0 01-.8-.52l1.06-1.42a4 4 0 001.21.77 3.62 3.62 0 001.36.27 3 3 0 001.11-.19 1.88 1.88 0 00.72-.53 2 2 0 00.38-.8 4.08 4.08 0 00.12-1v-.53a2.63 2.63 0 01-1 .82 3.29 3.29 0 01-1.39.29 3.5 3.5 0 01-1.5-.31 3.61 3.61 0 01-1.14-.82 3.82 3.82 0 01-.72-1.22 4 4 0 01-.26-1.48 4.37 4.37 0 01.25-1.5 3.72 3.72 0 01.72-1.22 3.49 3.49 0 011.13-.83 3.61 3.61 0 011.49-.3 3.28 3.28 0 011.46.32 2.43 2.43 0 011.07 1V68zm-3.91 1.29a2.13 2.13 0 00-.9.18 1.93 1.93 0 00-.66.5 2.12 2.12 0 00-.41.74 2.71 2.71 0 00-.15.91 2.41 2.41 0 00.15.85 2.31 2.31 0 00.41.74 2 2 0 00.66.53 1.93 1.93 0 00.88.2 2.06 2.06 0 00.91-.19 2.21 2.21 0 00.69-.51 2.5 2.5 0 00.44-.74 2.58 2.58 0 00.15-.88 2.7 2.7 0 00-.15-.9 2.55 2.55 0 00-.44-.75 2.1 2.1 0 00-.68-.5 2.19 2.19 0 00-.9-.2zm5.89-3.8a1.07 1.07 0 01.33-.78 1.12 1.12 0 01.83-.33 1.21 1.21 0 01.85.32 1 1 0 01.35.79 1 1 0 01-.35.78 1.21 1.21 0 01-.85.32 1.12 1.12 0 01-.83-.33 1.06 1.06 0 01-.33-.77zm.26 2.51h1.84v7.35h-1.84zm11.08 3.75V72a2.29 2.29 0 010 .25h-5.58a1.93 1.93 0 00.2.72 2 2 0 00.47.57 2.13 2.13 0 00.66.37 2 2 0 00.76.14 2.47 2.47 0 001.17-.25 2.27 2.27 0 00.78-.7l1.22 1a3.67 3.67 0 01-3.15 1.47 4.48 4.48 0 01-1.58-.27 3.61 3.61 0 01-1.24-.75 3.35 3.35 0 01-.83-1.21 4.09 4.09 0 01-.3-1.61 4.16 4.16 0 01.3-1.61 3.58 3.58 0 01.82-1.24 3.54 3.54 0 011.23-.8 4.09 4.09 0 011.54-.28 3.8 3.8 0 011.41.25 3.11 3.11 0 011.13.75 3.53 3.53 0 01.74 1.24 5 5 0 01.25 1.71zm-1.88-.83a2.13 2.13 0 00-.1-.67 1.44 1.44 0 00-.31-.57 1.67 1.67 0 00-.54-.39 1.87 1.87 0 00-.78-.15 2.07 2.07 0 00-1.4.5 1.82 1.82 0 00-.63 1.28zm14.18 4.41h-1.74v-1.18a2.42 2.42 0 01-.85 1 2.46 2.46 0 01-1.43.42 2.73 2.73 0 01-1.23-.25 2.37 2.37 0 01-.85-.67 2.58 2.58 0 01-.48-1 4 4 0 01-.15-1.1V68h1.83v4.07a5.45 5.45 0 00.05.68 1.86 1.86 0 00.2.63 1.35 1.35 0 00.42.47 1.27 1.27 0 00.71.18 1.67 1.67 0 00.76-.17 1.61 1.61 0 00.54-.46 2.06 2.06 0 00.31-.63 2.58 2.58 0 00.11-.73V68h1.83zm2.21-7.33h1.74v1.18a2.35 2.35 0 01.85-1 2.44 2.44 0 011.43-.42 2.73 2.73 0 011.23.25 2.37 2.37 0 01.85.67 2.79 2.79 0 01.48.94 4.13 4.13 0 01.15 1.11v4.59h-1.84v-4.06a5.38 5.38 0 000-.68 1.86 1.86 0 00-.2-.63 1.17 1.17 0 00-1.13-.65 1.68 1.68 0 00-.77.17 1.79 1.79 0 00-.53.45 2.24 2.24 0 00-.31.64 2.58 2.58 0 00-.11.73v4h-1.83zm16.37 7.33H228v-1.1a2.51 2.51 0 01-1.07 1 3.17 3.17 0 01-1.46.34 3.4 3.4 0 01-2.64-1.15 3.92 3.92 0 01-.72-1.24 4.55 4.55 0 01-.25-1.53 4.39 4.39 0 01.26-1.51 3.79 3.79 0 01.73-1.23 3.61 3.61 0 011.14-.82 3.56 3.56 0 011.44-.29 3.17 3.17 0 01.9.11 3.42 3.42 0 01.69.28 3.66 3.66 0 01.52.37 3 3 0 01.35.38v-5.18h1.84zm-6-3.71a2.8 2.8 0 00.13.86 2.16 2.16 0 00.39.77 2.19 2.19 0 00.65.55 2 2 0 00.94.21 1.87 1.87 0 00.9-.21 2 2 0 00.68-.54 2.38 2.38 0 00.43-.76 2.5 2.5 0 00.15-.85 2.54 2.54 0 00-.15-.85 2.42 2.42 0 00-.43-.77 2.29 2.29 0 00-.68-.55 1.87 1.87 0 00-.9-.21 2.13 2.13 0 00-.94.2 1.93 1.93 0 00-.65.55 2.07 2.07 0 00-.39.75 2.79 2.79 0 00-.17.85zm12.15-7.13h7.18v1.69h-5.25v2.75h5v1.62h-5v3.06h5.53v1.72h-7.46zm9.25 3.51h1.74v1.18a2.35 2.35 0 01.85-1 2.44 2.44 0 011.43-.42 2.73 2.73 0 011.23.25 2.37 2.37 0 01.85.67 2.79 2.79 0 01.48.94 4.13 4.13 0 01.15 1.11v4.59h-1.84v-4.06a5.38 5.38 0 000-.68 1.86 1.86 0 00-.2-.63 1.17 1.17 0 00-1.13-.65 1.68 1.68 0 00-.77.17 1.79 1.79 0 00-.53.45 2.24 2.24 0 00-.31.64 2.58 2.58 0 00-.11.73v4h-1.83zm7.84 1.45V68h1.28v-2.15h1.81V68h1.83v1.47h-1.82v3.41a1.74 1.74 0 00.17.81c.12.22.38.33.79.33a3 3 0 00.4 0 1.89 1.89 0 00.38-.12l.06 1.44a3.23 3.23 0 01-.58.15 4.85 4.85 0 01-.64 0 2.85 2.85 0 01-1.19-.21 1.73 1.73 0 01-.73-.56 2.16 2.16 0 01-.37-.83 5.21 5.21 0 01-.1-1v-3.44zm5.23-1.45h2l1.54 5.27 1.58-5.27h2l1.59 5.27 1.55-5.27h1.92l-2.54 7.35H266l-1.67-5.14-1.65 5.14h-1.87zm13.11-2.51a1.07 1.07 0 01.33-.78 1.13 1.13 0 01.83-.33 1.21 1.21 0 01.85.32 1 1 0 01.35.79 1 1 0 01-.35.78 1.21 1.21 0 01-.85.32 1.13 1.13 0 01-.83-.33 1.06 1.06 0 01-.33-.77zm.26 2.51h1.84v7.35h-1.84zm9.09 2a1.61 1.61 0 00-.64-.52 2.12 2.12 0 00-.87-.2 1.92 1.92 0 00-.89.2 1.89 1.89 0 00-.64.55 2.19 2.19 0 00-.37.75 3.17 3.17 0 00-.12.85 2.74 2.74 0 00.13.85 2.11 2.11 0 00.39.76 1.8 1.8 0 00.65.54 1.88 1.88 0 00.91.21 2.34 2.34 0 00.85-.17 1.53 1.53 0 00.69-.49l1.15 1.17a3.07 3.07 0 01-1.17.75 4.34 4.34 0 01-1.54.27 4.65 4.65 0 01-1.54-.26 3.8 3.8 0 01-1.27-.76 3.71 3.71 0 01-.85-1.23 4 4 0 01-.32-1.64 3.94 3.94 0 01.32-1.6 3.71 3.71 0 01.85-1.23 4 4 0 011.24-.78 4.28 4.28 0 011.53-.27 4.16 4.16 0 011.56.3 3 3 0 011.2.84zm2.48-6.24H285v7.31l2.84-3.07h2.35L287 71.3l3.38 4H288l-2.91-3.77v3.77h-1.84zm8.31 0h1.84v11.57h-1.84zm10.77 11.57h-1.74v-1.18a2.42 2.42 0 01-.85 1 2.46 2.46 0 01-1.43.42 2.73 2.73 0 01-1.23-.25 2.37 2.37 0 01-.85-.67 2.58 2.58 0 01-.48-1 4 4 0 01-.15-1.1V68h1.83v4.07a5.45 5.45 0 00.05.68 1.86 1.86 0 00.2.63 1.35 1.35 0 00.42.47 1.27 1.27 0 00.71.18 1.67 1.67 0 00.76-.17 1.61 1.61 0 00.54-.46 2.06 2.06 0 00.31-.63 2.58 2.58 0 00.11-.73V68h1.83zm2.21-7.33h1.74v1.18a2.35 2.35 0 01.85-1 2.44 2.44 0 011.43-.42 2.73 2.73 0 011.23.25 2.37 2.37 0 01.85.67 2.79 2.79 0 01.48.94 4.13 4.13 0 01.15 1.11v4.59h-1.84v-4.06a5.38 5.38 0 000-.68 1.86 1.86 0 00-.2-.63 1.17 1.17 0 00-1.15-.65 1.68 1.68 0 00-.77.17 1.79 1.79 0 00-.53.45 2.24 2.24 0 00-.31.64 2.58 2.58 0 00-.11.73v4h-1.83zm16.37 0v6.69a6.32 6.32 0 01-.24 1.8 3.61 3.61 0 01-.76 1.36 3.36 3.36 0 01-1.29.86 5 5 0 01-1.86.31 6.39 6.39 0 01-.94-.08 5.58 5.58 0 01-1-.23 5.74 5.74 0 01-.92-.38 4.59 4.59 0 01-.8-.52l1.06-1.42a3.84 3.84 0 001.21.77 3.62 3.62 0 001.36.27 3 3 0 001.11-.19 1.88 1.88 0 00.72-.53 2.19 2.19 0 00.38-.8 4.09 4.09 0 00.11-1v-.53a2.53 2.53 0 01-1 .82 3.32 3.32 0 01-1.39.29 3.5 3.5 0 01-1.5-.31 3.4 3.4 0 01-1.14-.82 4 4 0 01-.73-1.22 4.27 4.27 0 01-.26-1.48 4.38 4.38 0 01.26-1.5 3.55 3.55 0 01.72-1.22 3.49 3.49 0 011.13-.83 3.57 3.57 0 011.49-.3 3.21 3.21 0 011.45.32 2.45 2.45 0 011.08 1V68zm-3.92 1.29a2.11 2.11 0 00-.89.18 1.93 1.93 0 00-.66.5 2 2 0 00-.41.74 2.71 2.71 0 00-.15.91 2.41 2.41 0 00.15.85 2.14 2.14 0 00.41.74 2 2 0 00.66.53 1.93 1.93 0 00.88.2 2.06 2.06 0 00.91-.19 2.21 2.21 0 00.69-.51 2.28 2.28 0 00.43-.74 2.37 2.37 0 00.16-.88 2.47 2.47 0 00-.16-.9 2.33 2.33 0 00-.43-.75 2.1 2.1 0 00-.68-.5 2.21 2.21 0 00-.91-.2z" fill="#194b8d"/>
</svg>
