<svg width="1122.5" height="793.71" version="1.1" viewBox="0 0 1122.5 793.71" xml:space="preserve" xmlns="http://www.w3.org/2000/svg"><g transform="matrix(1.3333 0 0 -1.3333 0 793.71)"><g transform="scale(.1)" fill="#fff"><path d="m5924.5 4801.2c-56.92-93.85-145.24-144.35-197.26-112.8-52.03 31.56-48.07 133.22 8.85 227.07s145.24 144.35 197.27 112.8c52.02-31.56 48.06-133.22-8.86-227.07zm653.04-966.75c347.11 125.58 566.56 484.12 504.33 861.47-70.21 425.76-472.28 713.99-898.03 643.77-425.76-70.21-713.99-472.28-643.77-898.04 57.53-348.88 337.95-605.25 671.59-647.88l561.53-2597.4c13.76-60.94 104.42-45.99 97.89 16.14l-293.54 2621.9"/><path d="m424.34 1334.8v519.22h68.711v-213.21h269.88v213.21h68.707v-519.22h-68.707v244.73h-269.88v-244.73h-68.711"/><path d="m1183 1885.9v72.62h66.58v-72.62zm-132.1 0v72.62h66.58v-72.62zm235.88-31.88h68.71v-299.99c0-52.18-5.91-93.63-17.71-124.31-11.82-30.7-33.11-55.68-63.93-74.9-30.81-19.25-71.24-28.88-121.29-28.88-48.66 0-88.45 8.39-119.37 25.15-30.95 16.76-53.008 41.03-66.222 72.78-13.235 31.76-19.833 75.15-19.833 130.16v299.99h68.685v-299.63c0-45.11 4.19-78.34 12.59-99.7 8.38-21.37 22.77-37.84 43.21-49.42 20.42-11.56 45.38-17.34 74.91-17.34 50.51 0 86.54 11.45 108.03 34.34 21.47 22.91 32.22 66.95 32.22 132.12v299.63"/><path d="m1469.1 1334.8v519.22h70.47l272.74-407.66v407.66h65.85v-519.22h-70.47l-272.71 408.01v-408.01h-65.88"/><path d="m1997.2 1334.8v519.22h350.29v-61.26h-281.58v-160.82h243.67v-61.26h-243.67v-235.88h-68.71"/><path d="m2438.2 1334.8v519.22h375.42v-61.26h-306.71v-159.03h287.22v-60.92h-287.22v-176.73h318.76v-61.28h-387.47"/><path d="m2917.7 1334.8v519.22h68.71v-457.94h255.72v-61.28h-324.43"/><path d="m3392.7 1396.1h110.87c34.22 0 61.08 3.18 80.57 9.56 19.47 6.37 34.99 15.34 46.57 26.91 16.29 16.29 28.98 38.19 38.07 65.7 9.09 27.5 13.64 60.86 13.64 100.06 0 54.3-8.93 96.03-26.74 125.19-17.83 29.17-39.5 48.7-65 58.62-18.42 7.08-48.05 10.64-88.89 10.64h-109.09zm-68.71-61.28v519.22h178.85c40.4 0 71.2-2.49 92.45-7.42 29.75-6.87 55.13-19.27 76.14-37.2 27.4-23.16 47.88-52.72 61.46-88.73 13.56-36 20.36-77.15 20.36-123.41 0-39.45-4.59-74.4-13.82-104.84-9.19-30.48-21.01-55.68-35.42-75.63-14.39-19.96-30.15-35.66-47.27-47.1-17.13-11.45-37.79-20.14-61.97-26.03-24.21-5.91-52.02-8.86-83.43-8.86h-187.35"/><path d="m424.34 2430.6v1065.9c0 55.38 12.601 96.93 37.863 124.62 25.207 27.68 57.797 41.5 97.77 41.5 41.242 0 74.621-13.66 100.14-41.03 25.524-27.42 38.34-69.08 38.34-125.09v-1065.9c0-56-12.816-97.82-38.34-125.51-25.523-27.69-58.902-41.55-100.14-41.55-39.34 0-71.825 14.02-97.348 42.03-25.523 27.94-38.285 69.66-38.285 125.03"/><path d="m1362 3498.4 526.98-797.35v804.73c0 52.27 11.24 91.5 33.7 117.66 22.41 26.1 52.74 39.18 90.92 39.18 39.34 0 70.4-13.08 93.18-39.18 22.73-26.16 34.12-65.39 34.12-117.66v-1064.1c0-118.76-49.2-178.13-147.66-178.13-24.57 0-46.72 3.58-66.45 10.65-19.67 7.06-38.12 18.3-55.37 33.64-17.19 15.4-33.22 33.38-47.99 54-14.76 20.62-29.53 41.66-44.29 63.23l-514.01 788.13v-792.71c0-51.69-11.97-90.81-36.02-117.24-23.94-26.42-54.74-39.7-92.29-39.7-38.71 0-69.82 13.39-93.18 40.18-23.42 26.74-35.07 65.65-35.07 116.76v1043.7c0 44.3 4.9 79.05 14.77 104.31 11.65 27.63 31.06 50.26 58.11 67.82 27.11 17.51 56.32 26.26 87.7 26.26 24.57 0 45.67-4.01 63.23-11.97 17.51-8.02 32.9-18.78 46.14-32.33 13.18-13.5 26.74-31.06 40.61-52.58 13.81-21.56 28.1-43.98 42.87-67.34"/><path d="m3249.3 3428.2h-539.91v-346.1h451.31c41.82 0 73.04-9.38 93.66-28.16 20.62-18.77 30.9-43.82 30.9-75.2 0-31.37-10.44-56.27-31.32-74.72-20.94-18.46-52.05-27.74-93.24-27.74h-451.31v-445.72c0-56.64-12.76-98.61-38.28-125.98-25.53-27.37-58.27-41.08-98.3-41.08-40.61 0-73.67 13.86-99.19 41.55-25.53 27.69-38.29 69.51-38.29 125.51v1041c0 39.34 5.85 71.51 17.56 96.46 11.65 24.89 29.95 43.03 54.9 54.42 24.89 11.39 56.74 17.08 95.5 17.08h646.01c43.66 0 76.15-9.7 97.35-29.05 21.25-19.41 31.85-44.78 31.85-76.15 0-32.01-10.6-57.69-31.85-77.05-21.2-19.41-53.69-29.06-97.35-29.06"/><path d="m4567.1 2966.8c0 99.04-15.98 184.84-47.99 257.45-31.96 72.57-77.68 127.52-137.01 164.75-59.38 37.18-127.51 55.79-204.4 55.79-54.79 0-105.42-10.28-151.82-30.9-46.46-20.62-86.49-50.63-119.97-89.97-33.54-39.39-60.02-89.7-79.37-150.87-19.41-61.23-29.06-129.99-29.06-206.25 0-76.94 9.65-146.44 29.06-208.62 19.35-62.12 46.72-113.64 82.11-154.57 35.38-40.92 75.99-71.5 121.82-91.81 45.82-20.3 96.13-30.48 150.92-30.48 70.14 0 134.53 17.56 193.33 52.63 58.75 35.07 105.47 89.18 140.28 162.43 34.75 73.19 52.1 163.37 52.1 270.42zm-389.4 695.79c140.28 0 260.67-28.42 361.29-85.33 100.57-56.95 176.72-137.85 228.4-242.74s77.52-228.08 77.52-369.62c0-104.57-14.19-199.65-42.45-285.14-28.32-85.53-70.77-159.63-127.36-222.38-56.64-62.76-126.14-110.74-208.57-143.97-82.48-33.22-176.87-49.88-283.34-49.88-105.79 0-200.56 17.08-284.25 51.25-83.63 34.12-153.51 82.27-209.46 144.39-56 62.18-98.3 136.9-126.88 224.29-28.64 87.32-42.93 181.77-42.93 283.34 0 103.94 14.93 199.34 44.77 286.04 29.8 86.8 73.04 160.63 129.68 221.48 56.59 60.97 125.51 107.53 206.72 139.86 81.21 32.27 173.5 48.41 276.86 48.41"/><path d="m5538 3433.7h-184.58v-413.45h184.58c64.54 0 118.54 6.81 161.95 20.36 43.34 13.5 76.41 35.65 99.19 66.45 22.73 30.74 34.17 71.03 34.17 120.87 0 59.64-17.56 108.26-52.63 145.81-39.39 39.97-120.29 59.96-242.68 59.96zm66.44-620.17h-251.02v-382.96c0-54.79-12.97-96.29-38.81-124.56-25.84-28.32-58.43-42.5-97.77-42.5-41.24 0-74.46 14.02-99.67 42.03-25.26 27.94-37.86 69.03-37.86 123.18v1042.8c0 60.28 13.81 103.36 41.55 129.2 27.63 25.84 71.62 38.76 131.94 38.76h351.64c103.94 0 183.94-8.01 239.95-23.99 55.37-15.4 103.15-40.92 143.49-76.57 40.29-35.7 70.88-79.42 91.81-131.1 20.89-51.68 31.38-109.8 31.38-174.4 0-137.85-42.45-242.26-127.36-313.3-84.9-71.08-211.36-106.63-379.27-106.63"/><path d="m7316.1 3475.3 526.98-797.36v804.74c0 52.26 11.23 91.5 33.7 117.65 22.41 26.11 52.73 39.18 90.91 39.18 39.35 0 70.41-13.07 93.19-39.18 22.73-26.15 34.12-65.39 34.12-117.65v-1064.1c0-118.76-49.2-178.14-147.66-178.14-24.58 0-46.72 3.59-66.45 10.65-19.67 7.07-38.12 18.3-55.37 33.65-17.19 15.4-33.22 33.38-47.99 54-14.76 20.62-29.53 41.66-44.3 63.23l-514.01 788.12v-792.71c0-51.68-11.97-90.81-36.01-117.23-23.95-26.42-54.74-39.71-92.29-39.71-38.71 0-69.82 13.39-93.18 40.18-23.42 26.74-35.07 65.66-35.07 116.76v1043.7c0 44.3 4.9 79.05 14.76 104.31 11.66 27.64 31.06 50.26 58.12 67.82 27.1 17.51 56.32 26.26 87.7 26.26 24.57 0 45.67-4 63.23-11.97 17.5-8.01 32.9-18.77 46.14-32.32 13.18-13.5 26.74-31.06 40.61-52.58 13.81-21.57 28.1-43.98 42.87-67.34"/></g></g></svg>
