<svg width="262.73mm" height="84.138mm" version="1.0" xmlns="http://www.w3.org/2000/svg">
 <path d="m157 6.3333 0.66667 1.3333 2.6667 5.3333 1.6667 6 1.3333 6.6667 1 7.3333 0.33334 7.3333 0.33333 7.6667v15 5l-1 0.33333-7.6667 3.3333-3.6667 1.3333-4 1.3333-4.3333 0.66667-5 0.66667-6 0.66667h-7-6.6667l-6-0.66667-5-0.66667-4.3333-0.66667-4-1.3333-3.6667-1.3333-7.6667-3.3333-2-0.66667v-4.6667-15l0.33333-7.6667 1.3333-14.667 1.3333-6.6667 2-6 1-2.6667 2-4h-81.333l2 4 1 2.6667 2 6 1.3333 6.6667 0.66667 7.3333 0.66667 7.3333 0.33333 7.6667v15 5 180.33 4.6667 15.333l-0.33333 7.3333-0.66667 7.6667-0.66667 7-1.3333 6.6667-3 9-2 4h81.333l-0.66667-1.3333-1.3333-2.6667-3-9-1.3333-6.6667-0.66667-7-0.66667-7.6667-0.33333-7.3333v-15.333-4.6667-15.667l4 3.3333 4.3333 3 4.3333 2.6667 4.6667 2.6667 5 2.3333 5.3333 2 5.3333 1.6667 5.6667 1.6667h0.66666 0.66667l5.6667-1.6667 5.3333-1.6667 5-2 5-2.3333 4.6667-2.3333 4.3333-2.6667 8-6v15 4.6667 15.333l-0.33333 7.3333-0.33334 7.6667-1 7-1.3333 6.6667-1.6667 6-1.3333 3-1.3333 2.6667-0.66667 1.3333h81.667l-1-1.3333-1.3333-2.6667-3-9-1-6.6667-1-7-0.66666-7.6667v-7.3333l-0.33334-15.333v-4.6667-180.33-5l0.33334-15v-7.6667l0.66666-7.3333 1-7.3333 1-6.6667 2-6 1-2.6667 1.3333-2.6667 1-1.3333h-81.667z" fill="#fff" fill-rule="evenodd"/>
 <g fill="#0ba1e2" fill-rule="evenodd">
  <path d="m169.33 122.33 0.66667-6 2-12 1.3333-5v-0.66667l-0.33333-0.66667-7.3333-9.6667-0.66667-0.66667-1 0.33333-3 1.3333-3.3333 1-6.6667 1.6667-7 1-7.6667 0.66667v28.667h33z"/>
  <path d="m136.33 229 6-2.6667 5.3333-3.3333 5.3333-3.6667 4.6667-4.3333 4.3333-4.3333 3.6667-4.3333 3.6667-4.6667 6-9.3333 2.3333-4.6667 2-4.3333 1.6667-4 1.3333-4 1.3333-3.6667 0.66667-3 0.33333-2.6667v-0.66667l-3-3-3.3333-4-2-2.3333-1.6667-3-2-3.3333-1.3333-3.3333h-35.333v82.667z"/>
  <path d="m81.333 146.33-1.6667 3.3333-1.6667 3.3333-2 3-1.6667 2.3333-3.6667 4-2.3333 2.6667-0.66667 0.33333v0.66667l0.66667 2.6667 0.66667 3 1 3.6667 1.3333 4 4 8.6667 2.3333 4.6667 6 9.3333 3.6667 4.6667 4 4.3333 4.3333 4.3333 4.6667 4 5 4 5.6667 3 6 3v-83h-35.667z"/>
  <path d="m87.333 88.333-7.6667 9.6667-0.33333 0.66667 0.33333 0.66667 1.3333 5 2 12 0.66667 6h33.333v-28.667l-8-0.66667-7-1-6.6667-1.6667-3.3333-1-3.3333-1.3333-0.66667-0.33333-0.66667 0.66667z"/>
 </g>
 <g fill-rule="evenodd">
  <path d="m200.33 160zm51.667-160 0.33333 0.33333-0.33333 1.3333-0.33333 0.66667-0.66667 0.33333-2.3333 1.3333-2.3333 2-1.6667 2-1.6667 2.6667-1.3333 2.6667-1.3333 3.3333-1 3.3333-0.66666 3.6667-1.3333 8-0.66666 17.333v9 10 180.33 9.6667 9l0.33333 9 0.33333 8.6667 1.3333 7.6667 0.66666 3.6667 1 3.6667 1.3333 3 1.3333 3 1.6667 2.3333 1.6667 2.3333 2.3333 1.6667 2.3333 1.3333 0.66667 0.66667 0.33333 0.66667 0.33333 1.3333h-0.33333-108.67l0.33334-1.3333 0.33333-0.66667 0.66667-0.66667 2.3333-1.3333 2-1.6667 2-2.3333 1.6667-2.3333 1.3333-3 1-3 2-7.3333 1-7.6667 0.66667-8.6667 0.33333-9v-9-9.6667-10.333l2-1.6667-3.3333 2.6667-8 4.6667-4 2-4.3333 2-4.6667 1.6667-4.6667 1.3333-5 1.3333h-0.66667-0.66666l-4.6667-1.3333-4.3333-1.3333-8.6667-3.3333-4-2-3.6667-2-7.3333-4.6667v11 9.6667l0.33333 9v9l0.66667 8.6667 1.3333 7.6667 0.66667 3.6667 1 3.6667 1 3 1.6667 3 1.3333 2.3333 2 2.3333 2 1.6667 2.6667 1.3333 0.33333 0.66667 0.66667 0.66667v1.3333h-108.67v-1.3333l0.33333-0.66667 0.66667-0.66667 2.6667-1.3333 2-1.6667 3.3333-4.6667 2.6667-6 1-3.6667 0.66667-3.6667 1.3333-7.6667 0.33333-8.6667 0.33333-9v-9-9.6667-180.33-10-9l-0.66667-17.333-1.3333-8-0.66667-3.6667-1-3.3333-1.3333-3.3333-1.3333-2.6667-1.6667-2.6667-1.6667-2-2-2-3.3333-1.6667-0.33333-0.66667v-1.3333-0.33333h108.67v0.33333 1.3333l-1 1-2.6667 1.3333-4 4-1.3333 2.6667-1.6667 2.6667-2 6.6667-0.66667 3.6667-1.3333 8-0.66667 8.6667v8.6667l-0.33333 9v10 2.3333l6.6667 2.6667 3.3333 1 3.3333 0.66667 8.6667 1.3333 5.3333 0.33333h6 6l5.3333-0.33333 4.3333-0.66667 4-0.33333 3.6667-1 3-1 6.3333-2.3333v-2.6667-10-9l-0.33333-8.6667-0.66667-8.6667-1-8-1-3.6667-2-6.6667-1.3333-2.6667-1.6667-2.6667-4-4-2.3333-1.3333-0.66667-0.33333-0.33333-0.66667-0.33334-1.3333v-0.33333h108.67zm-88.333 234.33 1.3333-1-1.3333 1zm1.3333-1v15 4.6667 15.333l-0.33333 7.3333-0.33334 7.6667-1 7-1.3333 6.6667-1.6667 6-1.3333 3-1.3333 2.6667-0.66667 1.3333h81.667l-1-1.3333-1.3333-2.6667-3-9-1-6.6667-1-7-0.66666-7.6667v-7.3333l-0.33334-15.333v-4.6667-180.33-5l0.33334-15v-7.6667l0.66666-7.3333 1-7.3333 1-6.6667 2-6 1-2.6667 1.3333-2.6667 1-1.3333h-81.667l0.66667 1.3333 2.6667 5.3333 1.6667 6 1.3333 6.6667 1 7.3333 0.33334 7.3333 0.33333 7.6667v15 5l2.6667-1.3333 2-0.66667 1.3333 1.3333 23 24 1 1-0.33333 1.6667-1.3333 4-2.6667 8.6667-1 4-0.66667 4.3333-0.66667 4-0.33333 4.3333 0.33333 4.3333 0.33334 4.6667 1 4.6667 1.3333 3.6667 1.3333 3 1.6667 2.6667 1.6667 2.3333 2.3333 2 5 4 2.3333 2 1.3333 1-0.33334 1.6667-0.33333 2-1.3333 5.6667-2.6667 8.6667-1.6667 5-2 5.3333-2.6667 5.6667-2.6667 6-3.3333 6.3333-4 6-4.3333 6.3333-4.6667 5.6667-5.6667 6-6 5.3333zm-78-165.67v-4.6667-15l0.33333-7.6667 1.3333-14.667 1.3333-6.6667 2-6 1-2.6667 2-4h-81.333l2 4 1 2.6667 2 6 1.3333 6.6667 0.66667 7.3333 0.66667 7.3333 0.33333 7.6667v15 5 180.33 4.6667 15.333l-0.33333 7.3333-0.66667 7.6667-0.66667 7-1.3333 6.6667-3 9-2 4h81.333l-0.66667-1.3333-1.3333-2.6667-3-9-1.3333-6.6667-0.66667-7-0.66667-7.6667-0.33333-7.3333v-15.333-4.6667-15.667l-6-5.3333-5-5.6667-5-6-4.3333-6-3.6667-6.3333-3.3333-6-2.6667-6-2.6667-5.6667-2-5.3333-1.6667-5-2.3333-8.3333-1.3333-5.6667-0.33333-2-0.33333-1.6667 1.3333-1 2.3333-2 5-4 2-2 2-2.3333 1.6667-2.6667 1.3333-3 1.3333-3.6667 1-4.6667 0.33333-4.6667v-4.3333-4.3333l-0.66667-4-1-4.3333-1-4-2.3333-8.6667-1.3333-4-0.33333-1.6667 1-1 22.667-24 1.3333-1.3333 2 0.66667 2 1zm0.66667 165.67 1.3333 1-1.3333-1zm4.6667 3.6667 0.66667 0.33333-0.66667-0.33333zm44-142.33v27.667h32l0.66667-6 1-6.3333 1-5.6667 1.3333-5.3333v-0.33333l-7.6667-10-0.33334 0.33333-3 1.3333-3.3333 1-6.6667 1.6667-7 1-8 0.66667zm34 27.667h12l0.33334-3.3333 0.33333-3.3333 1-6.3333 1.6667-6.6667 2-6.3333 0.66666-2.3333-20-21-2 0.66667-6.3333 3-6.6667 2.3333-3.6667 1-4 0.66667-4.3333 0.66667-5 0.66667v10.667l7.6667-0.33333 7-1 6.3333-1.6667 6.3333-2.3333 1.6667-1 9 12-0.33333 1-1 5.3333-1.3333 5.6667-1.3333 12zm0.33334 24h-34.333v81.667l6-2.6667 5.3333-3.3333 5-3.6667 4.3333-4 4.3333-4.3333 4-4.3333 3.3333-4.6667 3-4.6667 2.6667-4.3333 2.3333-4.6667 2.3333-4.3333 1.6667-4 1.3333-4 1-3.3333 0.66667-3 0.33333-2.6667 0.33333-0.33333h-0.33333l-2.6667-2.6667-3.6667-4-1.6667-2.6667-2-3-1.6667-3.3333-1.6667-3.6667zm-34.333 83.667 6-2.6667 5.6667-3.3333 5.3333-4 4.6667-4 4.3333-4.3333 4-4.6667 3.6667-4.6667 6-9.3333 2.3333-4.6667 2.3333-4.6667 1.6667-4 1.3333-4 1-3.6667 1-3 0.33333-2.6667v-1.3333l-1-0.66667-2.3333-2.3333-3.3333-4-1.6667-2.3333-2-3-1.6667-3-1.3333-3.3333h14.333l2.6667 4 3 3.3333 3.3333 3 3.3333 2.6667 1 0.66667-1.6667 7.6667-1.6667 4.6667-1.6667 5.3333-2 5.6667-2.6667 5.6667-3 6.3333-3.6667 6-4 6.3333-4.6667 6-5 6-5.6667 5.6667-6 5.3333-6.6667 4.6667-3.6667 2.3333-4 2-3.6667 1.6667-4.3333 1.6667v-13zm-19.333-1.6667v-82h-34.667l-1.6667 3.6667-1.6667 3.3333-2 3-2 2.6667-3.6667 4-2.3333 2.6667h-0.33333v0.33333l0.66667 2.6667 0.66667 3 1 3.6667 1.3333 3.6667 1.6667 4 2 4.6667 2.3333 4.3333 6 9.3333 3.3333 4.3333 4 4.6667 4.3333 4 4.6667 4 5 4 5.3333 3 6 3zm-36.667-82h-14.333l-2.6667 4-3 3.3333-3.3333 3-3.6667 2.6667-0.66667 0.66667 0.66667 3.6667 1 4 1.3333 4.6667 1.6667 5.3333 2.3333 5.6667 2.6667 6 3 6 3.6667 6.3333 4 6.3333 4.6667 6 5 6 5.6667 5.6667 6.3333 5.3333 6.6667 4.6667 7.3333 4 4 2 4.3333 1.3333v-12.667l-6-2.6667-5.6667-3.3333-5.3333-4-5-4-4.3333-4.3333-4-4.6667-3.6667-4.6667-3-4.6667-3-5-2.3333-4.6667-2.3333-4.3333-1.6667-4.3333-1.3333-4-1.3333-3.6667-0.66667-3-0.33333-2.6667-0.33333-1.3333 1-0.66667 2.3333-2.3333 3.3333-4 2-2.3333 3.3333-6 1.6667-3.3333zm4.3333-24h32.333v-27.667l-8-0.66667-7-1-7-1.6667-3.3333-1-3-1.3333-0.66667-0.33333v0.33333l-7.6667 9.6667v0.33333l1.3333 5.3333 1.3333 5.6667 1 6.3333 0.66667 6zm32.333-29.667v-10.667l-5.3333-0.33333-4.3333-0.66667-4-1-3.6667-1-6.6667-2.3333-6.3333-3-2-0.66667-20.333 21 0.66667 2.3333 2 6.3333 1.6667 6.6667 1.3333 6.3333 0.66667 6.6667h12l-0.66667-6-1-6-1-5.6667-1.3333-5.3333-0.33333-1 9.3333-12 1.6667 1 3 1.3333 3.3333 1 6.6667 1.6667 7 1 7.6667 0.33333zm-64.333 67.333zm0 0zm73.667 86 3.6667-1 3.3333-1v-100.67h52.333l-1.6667-4.6667-1-5.3333-0.66667-4-0.33333-4h-48.667v-43.333l-7 0.33333-6.6667-0.33333v43.333h-49l-0.66667 8-1.3333 5.3333-1.3333 4.6667h52.667l-0.33333 100.67 6.6667 2z"/>
  <path d="m73.333 140 1-4.3333 0.66667-6.6667h47v-41.333h9.6667v41.333h46.333v3.3333l0.33333 3.3333 1 4.3333h-47.667v100.33l-5.3333 1.3333-4.3333-1.3333v-100.33h-48.667zm3.6667-2.6667h48v100l1.3333 0.66667 2.3333-0.66667v-100h47l-0.66667-3.6667v-1.6667h-46.333v-41.667h-4l0.33333 41.667h-47l-0.33333 1.6667-0.66667 3.6667z"/>
  <path d="m272.67 144.33h12v38.667h47.333v-38.667h12v90h-12v-41.333h-47.333v41.333h-12v-90z"/>
  <path d="m433.33 202-0.66666 8-1 3.6667-1 3.3333-2.6667 6-4 4.6667-5.3333 4-2.6667 1.3333-3.3333 1.3333-3.3333 1-3.6667 0.66667-8 0.66667-4.3333-0.33334-4-0.33333-7.3333-1.3333-3.3333-1.3333-3-1.3333-2.6667-1.6667-2.6667-2-2-2.3333-2-2.6667-1.6667-2.6667-1.3333-3.3333-1.3333-3.3333-0.66667-3.6667-0.66666-4v-4.3333-57.667h12v57.667 2.6667l0.33333 2.6667 0.66667 2.6667 0.66666 2.3333 1 2.3333 1 2 1.3333 1.6667 3.3333 3.3333 1.6667 1.3333 2 1 2.3333 1 2.3333 0.66667 5.3333 0.66666h3 2.6667l2.6667-0.33333 2.3333-0.33333 2.3333-0.66667 2.3333-1 1.6667-1 2-1.3333 1.3333-1.6667 1.6667-1.6667 1-1.6667 1-2 1-2.3333 0.66666-2.3333 0.33334-2.6667 0.66666-5.3333v-57.667h12v57.667zm-54-77.667h11.333v13h-11.333v-13zm23.667 0h11.333v13h-11.333v-13z"/>
  <path d="m452 144.33h13l47.333 73h0.33334v-73h11.333v90h-13l-47-72.333h-0.33333v72.333h-11.667v-90z"/>
  <path d="m546 144.33h59v10h-47v28.667h41.333v10h-41.333v41.333h-12v-90z"/>
  <path d="m614.67 144.33h62.333v10h-50.333v28.667h47v10h-47v31.333h50.667v10h-62.667v-90z"/>
  <path d="m693 144.33h12v80h40.667v10h-52.667v-90z"/>
  <path d="m765 224.33h20l3.6667-0.33333 4.3333-0.66667 2.6667-0.66666 2.3333-0.66667 2.6667-1.3333 2.3333-1.6667 2.6667-2 2-2.3333 2-3 2-3.3333 1.3333-4 1.3333-4.3333 0.66667-5.3333 0.33333-6-0.66666-7.3333-0.33334-3.6667-0.66666-3.3333-1-3-1-2.6667-1.6667-2.6667-1.6667-2.3333-1.6667-2.3333-2.3333-1.6667-2.3333-1.6667-2.6667-1.3333-3.3333-1-3.3333-0.66667-3.3333-0.33333-4-0.33334h-20.333v70zm-12-80h31 5l9.3333 1.3333 8 2.6667 6.6667 4 3 2.6667 2.6667 2.6667 4 6.6667 1.6667 4 1.3333 4 0.66666 4.6667 0.66667 5 0.33333 5.3333-0.33333 5.3333-0.33333 5.3333-1 4.6667-1 4.6667-1.3333 4.3333-4 7.3333-5.3333 6-6.6667 4.6667-4 1.6667-4.3333 1.3333-4.6667 1-5 0.66666h-5.3333-31v-90z"/>
  <path d="m272.67 266h6.6667v24.667l25-24.667h9.3333l-21.333 20.333 21.667 29.667h-8.6667l-18-25-8 7.6667v17.333h-6.6667v-50z"/>
  <path d="m351 305.33 1.6667-3.6667 1-3.3333 0.66666-4 0.33334-4-0.33334-4.3333-0.66666-3.6667-1.3333-3.3333-2-2.6667-2.6667-2.3333-1.3333-1-1.6667-0.66667-3.3333-1-3.6667-0.33333-3.6667 0.33333-3.3333 1-3 1.3333-2.6667 2.3333-1.3333 1.6667-1 1.3333-1.3333 3.6667-1 4.3333-0.33333 5 0.33333 4 0.66667 3.6667 1.3333 3.3333 2 3 1 1.3333 1.3333 1 1.3333 1 1.6667 0.66667 2 0.66667 1.6667 0.33333 4.3333 0.33333h2.3333l4-0.66666 1.6667-0.66667 1.3333-1 1.6667-1 1-1.3333 1.3333-1.3333zm5.6667-32 1.3333 1.6667 1 2 1.6667 4 0.66666 4.3333 0.33334 5-0.33334 5.3333-1 5-0.66666 2-1 2.3333-2.6667 4-1.6667 2-4 3.3333-4.6667 2-2.6667 0.66667-6 0.66667-8-1-2.3333-1-2-1-2-1.3333-2-1.6667-1.6667-1.6667-2.6667-4-1-2-1.3333-4.6667-0.66667-2.6667-0.33333-5.3333 0.33333-4.6667 1-4.6667 1.6667-4 2-4 2-2 1.6667-2 2.3333-1.6667 2-1.3333 2.6667-1 2.6667-0.66667 6-0.66666 6 0.66666 3 0.66667 4.6667 2 2.3333 1.6667 1.6667 1.6667 1.6667 2z"/>
  <path d="m369.33 266h8l25 40.667v-40.667h6.3333v50h-7.6667l-25.333-40.333v40.333h-6.3333v-50z"/>
  <path d="m441.33 289h2.3333l2-0.33333 1.6667-0.66667 1.3333-1 1-1 1-1.3333 0.33333-2 0.33333-2.3333-0.33333-2.3333-0.66667-2-1-1.6667-1.6667-1.3333-2.3333-0.66667-3-0.33333h-16v17h15zm-22-23h22.667l5.3333 0.66667 4 1.3333 1.6667 0.66667 1.3333 1.3333 1.3333 1 0.66666 1.3333 1 1.6667 0.33334 1.6667 0.66666 4-0.33333 2.3333-0.33333 1.6667-1.3333 3.3333-1 1.3333-1.3333 1.3333-1.3333 1-1.3333 1 2.3333 1.3333 1 1 1 0.66667 0.66666 1.3333 0.33334 1.3333 0.33333 1.6667 0.33333 2v6.6667l0.33334 2.6667 0.33333 1.6667 0.66667 2 0.66666 0.66667 0.66667 0.33333v1h-8.3333l-0.33334-1.6667-0.33333-3.6667-0.33333-8.3333-0.33334-2.3333-0.66666-2-1.3333-1.3333-1.3333-1-2.3333-0.66667-3.6667-0.33333h-14.667v21.333h-7v-50z"/>
  <path d="m495.33 295.67-7.6667-22-8 22h15.667zm-11.333-29.667h7.6667l18 50h-7.3333l-5.3333-15h-19.333l-5.3333 15h-7l18.667-50z"/>
  <path d="m534 310.33h3l2.3333-0.66666 2-1 1.6667-1 1.3333-1.3333 1.3333-2 1.6667-3.3333 1.3333-4.3333 0.33333-5-0.33333-4.3333-0.66667-4-1-3.3333-1.6667-2.6667-0.66666-1.3333-1.3333-1-1.3333-1-1.3333-0.66667-3-1-4-0.33333h-11.667v38.333h12zm-18.667-44.333h20l4.6667 0.66667 2.3333 0.66666 2 0.66667 1.6667 1 2 1.3333 1.6667 1.6667 2.6667 3.3333 1 1.6667 1.3333 4 1 4.3333 0.33333 5-0.33333 4-0.33334 3.6667-1 3.3333-1.3333 3.3333-1.3333 2.6667-1.6667 2.3333-2 2-2 1.6667-2.3333 1.3333-5.3333 1.3333-3.3333 0.33333-19.667-0.33333v-50z"/>
  <path d="m581 310.67 30.667-38.667h-28.667v-6h37.333v6l-31 38.333h31v5.6667h-39.333v-5.3333z"/>
  <path d="m633.33 266v31 2.6667l0.33334 2.3333 0.66666 2 1 2 1 1.3333 0.66667 1 1.3333 1 1 0.66667 1.3333 0.66667 1.6667 0.33333 3.3333 0.33333h2l1.6667-0.33333 2-0.33333 1.3333-0.66667 2.6667-2 1-1 1-1.3333 0.66667-2 0.33333-2 0.33334-2 0.33333-2.6667v-31h6.6667v28.333 4.3333l-0.66667 3.6667-0.66667 3.3333-1 2.6667-1.3333 2.3333-1.3333 1.6667-2 1.6667-2 1.3333-2.3333 0.66667-2.3333 1-3 0.33333h-3-3l-2.6667-0.33333-2.6667-1-2.3333-0.66667-2-1.3333-3.3333-3.3333-1-2.3333-1-2.6667-1-3.3333-0.33333-3.6667-0.33334-4.3333v-28.333h7z"/>
  <path d="m679.33 300v2l0.33334 2 0.66666 1.6667 0.66667 1.3333 2 2 1.3333 1 1.3333 0.66667 3 1 4 0.33333 3.3333-0.33333 3-1 2.6667-1 1.6667-1.6667 0.66667-1 0.66667-1.3333 0.33333-2.3333-0.33333-2-0.33334-1.6667-0.66666-1.3333-1.3333-0.66666-1.3333-1-1.6667-0.66667-4.6667-1.3333-6.6667-1.6667-5.3333-1.6667-2-0.66666-1.6667-1-2-1.6667-1.3333-2.3333-1-2.3333-0.33334-3 0.33334-3.3333 1-2.6667 1.3333-2.6667 2-2.3333 2.6667-2 2.6667-1.3333 3.6667-0.66667 4-0.33333 3.6667 0.33333 3.3333 0.66667 3 1 2.6667 1.6667 1.3333 1 2 2.6667 0.66667 1.3333 0.66666 1.6667 0.33334 1.6667 0.33333 3.6667h-6.3333l-0.66667-3.3333-0.66667-1.3333-0.66666-1.3333-1.6667-1.6667-2.3333-1.3333-2.6667-0.66667h-3.3333-2.6667l-2.3333 0.33333-3.3333 2-1 1.3333-0.66666 1.3333-0.66667 1.6667v1.6667 1.6667l0.66667 1.3333 1 1.3333 1.3333 1 3 1 5.6667 1.6667 6.6667 1.6667 2.3333 0.33333 2 1 1.6667 0.66667 1.6667 1 2 2 1.3333 2.3333 1 2.6667 0.33334 3.3333v2l-0.33334 1.6667-0.66666 1.6667-0.66667 1.6667-0.66667 1.3333-1 1.3333-2.6667 2-3 1.6667-3.3333 1-3.6667 0.66666-3.6667 0.33334-4.3333-0.33334-3.6667-1-3.3333-1.3333-1.3333-1-1.3333-1-1.3333-1.3333-1-1.3333-1.6667-3-1-3.3333-0.33333-4h6.6667z"/>
  <path d="m721 266h36v6.3333h-29.667v15h27.333v6h-27.333v17h30.333v5.6667h-36.667v-50z"/>
  <path d="m790.33 300 0.33334 2 0.33333 2 0.66667 1.6667 0.66666 1.3333 3 3 1.3333 0.66667 3.3333 1 3.6667 0.33333 3.6667-0.33333 3-1 2.6667-1 1.6667-1.6667 0.66666-1 0.33334-1.3333 0.33333-2.3333v-2l-0.33333-1.6667-1-1.3333-1-0.66666-1.3333-1-1.6667-0.66667-4.6667-1.3333-6.6667-1.6667-5.3333-1.6667-2-0.66666-1.6667-1-2-1.6667-1.3333-2.3333-1-2.3333-0.33333-3 0.33333-3.3333 1-2.6667 1.3333-2.6667 2-2.3333 2.3333-2 3-1.3333 3.3333-0.66667 4-0.33333 3.6667 0.33333 3.3333 0.66667 3 1 3 1.6667 1.3333 1 2 2.6667 0.66667 1.3333 1 3.3333 0.33333 3.6667h-6.3333l-0.66667-3.3333-1.3333-2.6667-2-1.6667-2-1.3333-3-0.66667h-3.3333-2.3333l-2.3333 0.33333-2 1-1.3333 1-1 1.3333-1 1.3333-0.33334 1.6667-0.33333 1.6667 0.33333 1.6667 0.66667 1.3333 0.66667 1.3333 1.3333 1 3.3333 1 5.6667 1.6667 6.6667 1.6667 2.3333 0.33333 2 1 1.6667 0.66667 1.3333 1 2.3333 2 1.3333 2.3333 0.66666 2.6667 0.33334 3.3333-0.33334 3.6667-0.33333 1.6667-0.66667 1.6667-1 1.3333-1 1.3333-1 1-1.3333 1-3 1.6667-3.3333 1-3.6667 0.66666-3.6667 0.33334-4.3333-0.33334-4-1-3.3333-1.3333-2.6667-2-2.3333-2.6667-1.3333-3-1-3.3333-0.33333-4h6.3333z"/>
  <path d="m865.67 266v6h-17v44h-6.6667v-44h-17v-6h40.667z"/>
  <path d="m890.67 295.67-7.6667-22-8 22h15.667zm-11.333-29.667h7.6667l18.333 50h-7.6667l-5-15h-19.667l-5.3333 15h-7l18.667-50z"/>
  <path d="m929.33 310.33h3l2.6667-0.66666 3.3333-2 1.6667-1.3333 1.3333-2 1.6667-3.3333 1-4.3333 0.33333-5v-4.3333l-0.66666-4-1.3333-3.3333-1.3333-2.6667-1-1.3333-1-1-1.3333-1-1.3333-0.66667-3.3333-1-3.6667-0.33333h-11.667v38.333h11.667zm-18.333-44.333h19.667l2.6667 0.33333 2.3333 0.33334 4 1.3333 2 1 1.6667 1.3333 1.6667 1.6667 2.6667 3.3333 1 1.6667 1.6667 4 0.66667 4.3333 0.33333 5v4l-0.66666 3.6667-2 6.6667-1.6667 2.6667-1.6667 2.3333-1.6667 2-2.3333 1.6667-2.3333 1.3333-5.3333 1.3333-3 0.33333-19.667-0.33333v-50z"/>
  <path d="m992.67 266v6h-17v44h-6.6667v-44h-17v-6h40.667z"/>
 </g>
 <g fill="#0ba1e2" fill-rule="evenodd">
  <path d="m916.67 233-5.6667-1.3333-5.3333-2-5.3333-2.6667-5-3-4.6667-3.6667-4.3333-4-3.6667-4.3333-3.6667-5-3-5-2.3333-5.6667-2-5.6667-1.3333-5.6667-1-6v-6l0.33334-6 1-6 1.3333-6 2.3333-5.6667 2.6667-5.6667 3-5 3.6667-4.6667 4-4.3333 4.3333-4 5-3.6667 5.3333-3 5.3333-2.3333 5.3333-2 5.6667-1.3333 6-1h5.6667l6 0.33334 5.6667 1 5.3333 1.3333 5 1.6667 4.6667 2.3333 4.3333 2.3333 4.3333 3 4 3.3333 3.3333 3.3333 3.3333 4 3 4 2.6667 4.3333 2.3333 4.6667 2 4.6667 1.3333 5 1 5 0.66666 5 0.33334 5.3333-0.33334 6.3333-1 6.3333-1.6667 6-2 6-2.6667 5.3333-3.3333 5-3.6667 4.6667-4 4.3333-4.3333 4-4.6667 3.3333-5 3-5.3333 2.3333-5.3333 2-5.6667 1.6667-6 0.66667-5.6667 0.33333-6.3333-0.33333-6-1zm-21-113.33-5.3333 3.6667-4.6667 4.3333-4.3333 4.3333-3.6667 5-3.3333 5.3333-2.6667 5.6667-2.3333 6-1.6667 6.3333-1 6.3333-0.33334 6.3333 0.33334 6.3333 0.66666 6 1.3333 6.3333 2.3333 5.6667 2.3333 6 3.3333 5.3333 3.6667 5 4 4.6667 4.6667 4.3333 4.6667 3.6667 10.667 6 5.6667 2 6 1.6667 6.3333 1 6.3333 0.33333 6.3333-0.33333 6-1 6-1.3333 11.333-4.6667 5.3333-3.3333 4.6667-3.6667 4.6667-4 4.3333-4.3333 3.6667-5 3.3333-5.3333 2.6667-5.6667 2.3333-6 1.6667-6.3333 1-6.3333 0.33333-6.3333v-6.3333l-1-6.3333-1.3333-6-2-5.6667-2.6667-5.6667-3-5.3333-3.6667-5-4-4.6667-4.3333-4-4.6667-4-5.3333-3.3333-5.6667-2.6667-5.6667-2.3333-6.3333-1.6667-6-1-6.3333-0.33334-6 0.33334-6 0.66666-6 1.6667-5.6667 2-5.6667 2.3333-5.3333 3.3333z"/>
  <path d="m922.67 195.33 0.33333-1 52.333-31.333 4.6667-19.667-80-19.333-2.3333 9.3333 44 10.667-0.33334 1-61.333 34-4 17.667 90.667 21.667 2.6667-11.667-46.667-11.333z"/>
  <path d="m904 153.33-9.3333-2 2.3333-9.3333-2.6667-0.33333-2 9-9.3333-2-0.66667 2.6667 9.3333 2-2.3333 9.3333 2.6667 0.66666 2.3333-9.3333 9 2 0.66667-2.6667z"/>
  <path d="m975 190-0.66667 3-24-5.6667 0.66667-3 24 5.6667z"/>
 </g>
</svg>
