<svg width="262.73mm" height="84.138mm" version="1.0" xmlns="http://www.w3.org/2000/svg">
 <g fill-rule="evenodd">
  <path d="m11.018 106.13h16.165v52.088h63.763v-52.088h16.165v121.24h-16.165v-55.68h-63.763v55.68h-16.165z"/>
  <path d="m227.45 183.81-0.89806 10.777-1.3471 4.9394-1.3471 4.4903-3.5923 8.0826-5.3884 6.2865-7.1846 5.3884-3.5923 1.7961-4.4903 1.7961-4.4904 1.3471-4.9394 0.89807-10.777 0.89808-5.8375-0.44905-5.3884-0.44903-9.8788-1.7961-4.4904-1.7962-4.0413-1.7961-3.5923-2.2452-3.5923-2.6942-2.6942-3.1432-2.6942-3.5923-2.2452-3.5923-1.7962-4.4904-1.7961-4.4904-0.89808-4.9394-0.89806-5.3884v-83.521h16.165v81.275l0.44903 3.5923 0.89807 3.5923 0.89806 3.1432 1.3471 3.1432 1.3471 2.6942 1.7962 2.2452 4.4903 4.4904 2.2452 1.7961 2.6942 1.3471 3.1432 1.3471 3.1432 0.89808 7.1846 0.89806h7.6336l3.5923-0.44903 3.1432-0.44903 3.1433-0.89808 3.1432-1.3471 2.2452-1.3471 2.6942-1.7961 1.7961-2.2452 2.2452-2.2452 1.3471-2.2452 1.3471-2.6942 1.3471-3.1432 0.89806-3.1432 0.44904-3.5923 0.89806-7.1846v-77.683h16.165zm-72.744-104.63h15.267v17.512h-15.267zm31.882 0h15.267v17.512h-15.267z"/>
  <path d="m252.6 106.13h17.512l63.763 98.339h0.44905v-98.339h15.267v121.24h-17.512l-63.314-97.441h-0.44903v97.441h-15.716z"/>
  <path d="m379.23 106.13h79.479v13.471h-63.314v38.617h55.68v13.471h-55.68v55.68h-16.165z"/>
  <path d="m471.73 106.13h83.97v13.471h-67.804v38.617h63.314v13.471h-63.314v42.209h68.253v13.471h-84.419z"/>
  <path d="m577.25 106.13h16.165v107.77h54.782v13.471h-70.948z"/>
  <path d="m674.24 213.9h26.942l4.9394-0.44904 5.8374-0.89807 3.5923-0.89806 3.1432-0.89808 3.5923-1.7961 3.1432-2.2452 3.5923-2.6942 2.6942-3.1432 2.6942-4.0413 2.6942-4.4904 1.7961-5.3884 1.7961-5.8374 0.89808-7.1846 0.44903-8.0826-0.89806-9.8788-0.44905-4.9394-0.89806-4.4904-1.3471-4.0413-1.3471-3.5923-2.2452-3.5923-2.2452-3.1432-2.2452-3.1432-3.1433-2.2452-3.1432-2.2452-3.5923-1.7961-4.4904-1.3471-4.4904-0.89808-4.4904-0.44903-5.3884-0.44904h-27.391zm-16.165-107.77h48.496l12.573 1.7962 10.777 3.5923 8.9807 5.3884 4.0413 3.5923 3.5923 3.5923 5.3884 8.9807 2.2452 5.3884 1.7962 5.3884 0.89806 6.2865 0.89808 6.7355 0.44903 7.1846-0.44903 7.1846-0.44904 7.1846-1.3471 6.2865-1.3471 6.2865-1.7962 5.8375-5.3884 9.8788-7.1846 8.0826-8.9807 6.2865-5.3884 2.2452-5.8374 1.7962-6.2865 1.3471-6.7355 0.89806h-48.945z"/>
  <path d="m878.55 225.57-7.6336-1.7961-7.1846-2.6942-7.1846-3.5923-6.7355-4.0413-6.2865-4.9394-5.8375-5.3884-4.9394-5.8374-4.9394-6.7355-4.0413-6.7355-3.1432-7.6336-2.6942-7.6336-1.7962-7.6336-1.3471-8.0826v-8.0826l0.44904-8.0826 1.3471-8.0826 1.7961-8.0826 3.1432-7.6336 3.5923-7.6336 4.0413-6.7355 4.9394-6.2865 5.3884-5.8375 5.8375-5.3884 6.7355-4.9394 7.1846-4.0413 7.1846-3.1432 7.1846-2.6942 7.6336-1.7962 8.0826-1.3471h7.6336l8.0826 0.44904 7.6336 1.3471 7.1846 1.7961 6.7355 2.2452 6.2865 3.1432 5.8374 3.1432 5.8375 4.0413 5.3884 4.4904 4.4904 4.4903 4.4904 5.3884 4.0413 5.3884 3.5923 5.8374 3.1432 6.2865 2.6942 6.2865 1.7962 6.7355 1.3471 6.7355 0.89806 6.7355 0.44905 7.1846-0.44905 8.5317-1.3471 8.5317-2.2452 8.0826-2.6942 8.0826-3.5923 7.1846-4.4904 6.7355-4.9394 6.2865-5.3884 5.8374-5.8374 5.3884-6.2865 4.4904-6.7355 4.0413-7.1846 3.1433-7.1846 2.6942-7.6336 2.2452-8.0826 0.89807-7.6336 0.44903-8.5317-0.44903zm-28.289-152.67-7.1846 4.9394-6.2865 5.8375-5.8375 5.8375-4.9394 6.7355-4.4904 7.1846-3.5923 7.6336-3.1432 8.0826-2.2452 8.5317-1.3471 8.5317-0.44904 8.5317 0.44904 8.5317 0.89806 8.0826 1.7962 8.5317 3.1432 7.6336 3.1432 8.0826 4.4904 7.1846 4.9394 6.7355 5.3884 6.2865 6.2865 5.8375 6.2865 4.9394 14.369 8.0826 7.6336 2.6942 8.0826 2.2452 8.5317 1.3471 8.5317 0.44903 8.5317-0.44903 8.0826-1.3471 8.0826-1.7961 15.267-6.2865 7.1846-4.4904 6.2865-4.9394 6.2865-5.3884 5.8374-5.8375 4.9394-6.7355 4.4903-7.1846 3.5923-7.6336 3.1432-8.0826 2.2452-8.5317 1.3471-8.5317 0.44903-8.5317v-8.5317l-1.3471-8.5317-1.7961-8.0826-2.6942-7.6336-3.5923-7.6336-4.0413-7.1846-4.9394-6.7355-5.3884-6.2865-5.8375-5.3884-6.2865-5.3884-7.1846-4.4904-7.6336-3.5923-7.6336-3.1433-8.5317-2.2452-8.0826-1.3471-8.5317-0.44904-8.0826 0.44904-8.0826 0.89806-8.0826 2.2452-7.6336 2.6942-7.6336 3.1432z"/>
  <path d="m886.64 174.83 0.44903-1.3471 70.499-42.209 6.2865-26.493-107.77-26.044-3.1432 12.573 59.273 14.369-0.44904 1.3471-82.622 45.802-5.3884 23.799 122.14 29.187 3.5923-15.716z"/>
  <path d="m861.49 118.25-12.573-2.6942 3.1432-12.573-3.5923-0.44903-2.6942 12.124-12.573-2.6942-0.89808 3.5923 12.573 2.6942-3.1433 12.573 3.5923 0.89806 3.1432-12.573 12.124 2.6942z"/>
  <path d="m957.14 167.65-0.89807 4.0413-32.331-7.6336 0.89807-4.0413z"/>
 </g>
</svg>
